G75*
%MOIN*%
%OFA0B0*%
%FSLAX25Y25*%
%IPPOS*%
%LPD*%
%AMOC8*
5,1,8,0,0,1.08239X$1,22.5*
%
%ADD10C,0.05600*%
%ADD11C,0.07800*%
%ADD12OC8,0.06400*%
%ADD13OC8,0.05600*%
%ADD14C,0.08274*%
D10*
X0144995Y0117524D02*
X0150195Y0117524D01*
X0159995Y0142524D02*
X0165195Y0142524D01*
X0165195Y0152524D02*
X0159995Y0152524D01*
X0159995Y0162524D02*
X0165195Y0162524D01*
X0165195Y0172524D02*
X0159995Y0172524D01*
X0159995Y0182524D02*
X0165195Y0182524D01*
X0165195Y0192524D02*
X0159995Y0192524D01*
X0159995Y0202524D02*
X0165195Y0202524D01*
X0189995Y0202524D02*
X0195195Y0202524D01*
X0195195Y0192524D02*
X0189995Y0192524D01*
X0189995Y0182524D02*
X0195195Y0182524D01*
X0195195Y0172524D02*
X0189995Y0172524D01*
X0189995Y0162524D02*
X0195195Y0162524D01*
X0195195Y0152524D02*
X0189995Y0152524D01*
X0189995Y0142524D02*
X0195195Y0142524D01*
X0190195Y0117524D02*
X0184995Y0117524D01*
D11*
X0052595Y0102524D03*
X0052595Y0112524D03*
X0052595Y0122524D03*
X0052595Y0132524D03*
X0052595Y0142524D03*
X0052595Y0152524D03*
X0052595Y0162524D03*
X0052595Y0172524D03*
X0052595Y0182524D03*
X0052595Y0192524D03*
X0052595Y0207524D03*
X0052595Y0217524D03*
X0052595Y0227524D03*
X0052595Y0237524D03*
X0052595Y0247524D03*
X0052595Y0257524D03*
X0052595Y0267524D03*
X0052595Y0277524D03*
X0097595Y0197524D03*
X0097595Y0187524D03*
X0097595Y0177524D03*
X0097595Y0162524D03*
X0097595Y0152524D03*
X0097595Y0142524D03*
X0127595Y0142524D03*
X0127595Y0152524D03*
X0127595Y0162524D03*
X0127595Y0177524D03*
X0127595Y0187524D03*
X0127595Y0197524D03*
X0242595Y0197524D03*
X0242595Y0207524D03*
X0242595Y0227524D03*
X0242595Y0237524D03*
X0242595Y0247524D03*
X0242595Y0257524D03*
X0242595Y0267524D03*
X0242595Y0277524D03*
X0242595Y0187524D03*
X0242595Y0177524D03*
X0242595Y0167524D03*
X0242595Y0157524D03*
X0242595Y0147524D03*
X0242595Y0137524D03*
D12*
X0207595Y0267524D03*
X0207595Y0277524D03*
X0197595Y0277524D03*
X0197595Y0267524D03*
X0187595Y0267524D03*
X0187595Y0277524D03*
X0177595Y0277524D03*
X0177595Y0267524D03*
D13*
X0172595Y0232524D03*
X0172595Y0222524D03*
X0192595Y0222524D03*
X0192595Y0232524D03*
X0207595Y0232524D03*
X0207595Y0222524D03*
X0207595Y0202524D03*
X0207595Y0182524D03*
X0207595Y0172524D03*
X0207595Y0252524D03*
X0142595Y0252524D03*
X0142595Y0232524D03*
X0137595Y0217524D03*
X0127595Y0217524D03*
X0122595Y0252524D03*
X0102595Y0252524D03*
X0077595Y0217524D03*
X0077595Y0207524D03*
X0077595Y0182524D03*
X0077595Y0162524D03*
D14*
X0207512Y0114622D03*
X0227512Y0114622D03*
M02*
