%
M48
M72
T01C0.02362
T02C0.03200
T03C0.04000
T04C0.05118
%
T01
X227595Y197524
T02
X207595Y202524
X192595Y202524
X192595Y192524
X192595Y182524
X192595Y172524
X192595Y162524
X192595Y152524
X192595Y142524
X187595Y117524
X162595Y142524
X162595Y152524
X162595Y162524
X162595Y172524
X162595Y182524
X162595Y192524
X162595Y202524
X172595Y222524
X172595Y232524
X192595Y232524
X192595Y222524
X207595Y222524
X207595Y232524
X207595Y252524
X207595Y182524
X207595Y172524
X147595Y117524
X77595Y162524
X77595Y182524
X77595Y207524
X77595Y217524
X102595Y252524
X122595Y252524
X142595Y252524
X142595Y232524
X137595Y217524
X127595Y217524
T03
X52595Y102524
X52595Y112524
X52595Y122524
X52595Y132524
X52595Y142524
X52595Y152524
X52595Y162524
X52595Y172524
X52595Y182524
X52595Y192524
X52595Y207524
X52595Y217524
X52595Y227524
X52595Y237524
X52595Y247524
X52595Y257524
X52595Y267524
X52595Y277524
X97595Y197524
X97595Y187524
X97595Y177524
X97595Y162524
X97595Y152524
X97595Y142524
X127595Y142524
X127595Y152524
X127595Y162524
X127595Y177524
X127595Y187524
X127595Y197524
X177595Y267524
X177595Y277524
X187595Y277524
X187595Y267524
X197595Y267524
X197595Y277524
X207595Y277524
X207595Y267524
X242595Y267524
X242595Y277524
X242595Y257524
X242595Y247524
X242595Y237524
X242595Y227524
X242595Y207524
X242595Y197524
X242595Y187524
X242595Y177524
X242595Y167524
X242595Y157524
X242595Y147524
X242595Y137524
T04
X227512Y114622
X207512Y114622
M30
