G75*
%MOIN*%
%OFA0B0*%
%FSLAX25Y25*%
%IPPOS*%
%LPD*%
%AMOC8*
5,1,8,0,0,1.08239X$1,22.5*
%
%ADD10C,0.00000*%
%ADD11C,0.05200*%
%ADD12C,0.07400*%
%ADD13OC8,0.06000*%
%ADD14OC8,0.05200*%
%ADD15C,0.07874*%
%ADD16C,0.05000*%
%ADD17R,0.03562X0.03562*%
%ADD18C,0.01600*%
D10*
X0047595Y0097524D02*
X0047595Y0282484D01*
X0247595Y0282484D01*
X0247595Y0097524D01*
X0047595Y0097524D01*
D11*
X0144995Y0117524D02*
X0150195Y0117524D01*
X0159995Y0142524D02*
X0165195Y0142524D01*
X0165195Y0152524D02*
X0159995Y0152524D01*
X0159995Y0162524D02*
X0165195Y0162524D01*
X0165195Y0172524D02*
X0159995Y0172524D01*
X0159995Y0182524D02*
X0165195Y0182524D01*
X0165195Y0192524D02*
X0159995Y0192524D01*
X0159995Y0202524D02*
X0165195Y0202524D01*
X0189995Y0202524D02*
X0195195Y0202524D01*
X0195195Y0192524D02*
X0189995Y0192524D01*
X0189995Y0182524D02*
X0195195Y0182524D01*
X0195195Y0172524D02*
X0189995Y0172524D01*
X0189995Y0162524D02*
X0195195Y0162524D01*
X0195195Y0152524D02*
X0189995Y0152524D01*
X0189995Y0142524D02*
X0195195Y0142524D01*
X0190195Y0117524D02*
X0184995Y0117524D01*
D12*
X0127595Y0142524D03*
X0127595Y0152524D03*
X0127595Y0162524D03*
X0127595Y0177524D03*
X0127595Y0187524D03*
X0127595Y0197524D03*
X0097595Y0197524D03*
X0097595Y0187524D03*
X0097595Y0177524D03*
X0097595Y0162524D03*
X0097595Y0152524D03*
X0097595Y0142524D03*
X0052595Y0142524D03*
X0052595Y0152524D03*
X0052595Y0162524D03*
X0052595Y0172524D03*
X0052595Y0182524D03*
X0052595Y0192524D03*
X0052595Y0207524D03*
X0052595Y0217524D03*
X0052595Y0227524D03*
X0052595Y0237524D03*
X0052595Y0247524D03*
X0052595Y0257524D03*
X0052595Y0267524D03*
X0052595Y0277524D03*
X0052595Y0132524D03*
X0052595Y0122524D03*
X0052595Y0112524D03*
X0052595Y0102524D03*
X0242595Y0137524D03*
X0242595Y0147524D03*
X0242595Y0157524D03*
X0242595Y0167524D03*
X0242595Y0177524D03*
X0242595Y0187524D03*
X0242595Y0197524D03*
X0242595Y0207524D03*
X0242595Y0227524D03*
X0242595Y0237524D03*
X0242595Y0247524D03*
X0242595Y0257524D03*
X0242595Y0267524D03*
X0242595Y0277524D03*
D13*
X0207595Y0277524D03*
X0207595Y0267524D03*
X0197595Y0267524D03*
X0197595Y0277524D03*
X0187595Y0277524D03*
X0187595Y0267524D03*
X0177595Y0267524D03*
X0177595Y0277524D03*
D14*
X0207595Y0252524D03*
X0207595Y0232524D03*
X0207595Y0222524D03*
X0192595Y0222524D03*
X0192595Y0232524D03*
X0172595Y0232524D03*
X0172595Y0222524D03*
X0142595Y0232524D03*
X0137595Y0217524D03*
X0127595Y0217524D03*
X0122595Y0252524D03*
X0102595Y0252524D03*
X0077595Y0217524D03*
X0077595Y0207524D03*
X0077595Y0182524D03*
X0077595Y0162524D03*
X0142595Y0252524D03*
X0207595Y0202524D03*
X0207595Y0182524D03*
X0207595Y0172524D03*
D15*
X0207512Y0114622D03*
X0227512Y0114622D03*
D16*
X0207512Y0114622D02*
X0202678Y0117607D01*
X0187595Y0117524D01*
X0232595Y0167524D02*
X0227595Y0172524D01*
X0227595Y0197524D01*
X0232595Y0167524D02*
X0242595Y0167524D01*
D17*
X0227595Y0197524D03*
D18*
X0223761Y0200619D02*
X0223441Y0200299D01*
X0222695Y0198498D01*
X0222695Y0171549D01*
X0223441Y0169748D01*
X0224820Y0168370D01*
X0229820Y0163370D01*
X0231620Y0162624D01*
X0238868Y0162624D01*
X0238968Y0162524D01*
X0237424Y0160979D01*
X0236495Y0158737D01*
X0236495Y0156310D01*
X0237424Y0154068D01*
X0238968Y0152524D01*
X0237424Y0150979D01*
X0236495Y0148737D01*
X0236495Y0146310D01*
X0237424Y0144068D01*
X0238968Y0142524D01*
X0237424Y0140979D01*
X0236495Y0138737D01*
X0236495Y0136310D01*
X0237424Y0134068D01*
X0239140Y0132352D01*
X0241382Y0131424D01*
X0243809Y0131424D01*
X0245195Y0131998D01*
X0245195Y0099924D01*
X0058121Y0099924D01*
X0058695Y0101310D01*
X0058695Y0103737D01*
X0057766Y0105979D01*
X0056222Y0107524D01*
X0057766Y0109068D01*
X0058695Y0111310D01*
X0058695Y0113737D01*
X0057766Y0115979D01*
X0056222Y0117524D01*
X0057766Y0119068D01*
X0058695Y0121310D01*
X0058695Y0123737D01*
X0057766Y0125979D01*
X0056222Y0127524D01*
X0057766Y0129068D01*
X0058695Y0131310D01*
X0058695Y0133737D01*
X0057766Y0135979D01*
X0056222Y0137524D01*
X0057766Y0139068D01*
X0057872Y0139324D01*
X0073232Y0139324D01*
X0074408Y0139811D01*
X0075308Y0140711D01*
X0080308Y0145711D01*
X0080795Y0146887D01*
X0080795Y0158653D01*
X0082595Y0160453D01*
X0082595Y0164595D01*
X0079666Y0167524D01*
X0075524Y0167524D01*
X0072595Y0164595D01*
X0072595Y0160453D01*
X0074395Y0158653D01*
X0074395Y0148849D01*
X0071270Y0145724D01*
X0057872Y0145724D01*
X0057766Y0145979D01*
X0056222Y0147524D01*
X0057766Y0149068D01*
X0058695Y0151310D01*
X0058695Y0153737D01*
X0057766Y0155979D01*
X0056222Y0157524D01*
X0057766Y0159068D01*
X0058695Y0161310D01*
X0058695Y0163737D01*
X0057766Y0165979D01*
X0056222Y0167524D01*
X0057766Y0169068D01*
X0058695Y0171310D01*
X0058695Y0173737D01*
X0057766Y0175979D01*
X0056222Y0177524D01*
X0057766Y0179068D01*
X0058695Y0181310D01*
X0058695Y0183737D01*
X0057766Y0185979D01*
X0056222Y0187524D01*
X0057766Y0189068D01*
X0058695Y0191310D01*
X0058695Y0193737D01*
X0057766Y0195979D01*
X0056051Y0197695D01*
X0053809Y0198624D01*
X0051382Y0198624D01*
X0049995Y0198049D01*
X0049995Y0201998D01*
X0051382Y0201424D01*
X0053809Y0201424D01*
X0056051Y0202352D01*
X0057766Y0204068D01*
X0058695Y0206310D01*
X0058695Y0208737D01*
X0057766Y0210979D01*
X0056222Y0212524D01*
X0057766Y0214068D01*
X0058695Y0216310D01*
X0058695Y0218737D01*
X0057766Y0220979D01*
X0056222Y0222524D01*
X0057766Y0224068D01*
X0058695Y0226310D01*
X0058695Y0228737D01*
X0057766Y0230979D01*
X0056222Y0232524D01*
X0057766Y0234068D01*
X0058695Y0236310D01*
X0058695Y0238737D01*
X0057766Y0240979D01*
X0056222Y0242524D01*
X0057766Y0244068D01*
X0058695Y0246310D01*
X0058695Y0248737D01*
X0057766Y0250979D01*
X0056222Y0252524D01*
X0057766Y0254068D01*
X0058695Y0256310D01*
X0058695Y0258737D01*
X0057766Y0260979D01*
X0056222Y0262524D01*
X0057766Y0264068D01*
X0057872Y0264324D01*
X0061270Y0264324D01*
X0075782Y0249811D01*
X0076959Y0249324D01*
X0098724Y0249324D01*
X0100524Y0247524D01*
X0104666Y0247524D01*
X0107595Y0250453D01*
X0107595Y0254595D01*
X0104666Y0257524D01*
X0100524Y0257524D01*
X0098724Y0255724D01*
X0078921Y0255724D01*
X0065308Y0269336D01*
X0064408Y0270236D01*
X0063232Y0270724D01*
X0057872Y0270724D01*
X0057766Y0270979D01*
X0056222Y0272524D01*
X0057766Y0274068D01*
X0057872Y0274324D01*
X0066270Y0274324D01*
X0075782Y0264811D01*
X0076959Y0264324D01*
X0173158Y0264324D01*
X0175358Y0262124D01*
X0179832Y0262124D01*
X0182595Y0264887D01*
X0185358Y0262124D01*
X0189832Y0262124D01*
X0192595Y0264887D01*
X0195358Y0262124D01*
X0197670Y0262124D01*
X0191270Y0255724D01*
X0146466Y0255724D01*
X0144666Y0257524D01*
X0140524Y0257524D01*
X0138724Y0255724D01*
X0126466Y0255724D01*
X0124666Y0257524D01*
X0120524Y0257524D01*
X0117595Y0254595D01*
X0117595Y0250453D01*
X0120524Y0247524D01*
X0124666Y0247524D01*
X0126466Y0249324D01*
X0138724Y0249324D01*
X0140524Y0247524D01*
X0144666Y0247524D01*
X0146466Y0249324D01*
X0193232Y0249324D01*
X0194408Y0249811D01*
X0204408Y0259811D01*
X0205308Y0260711D01*
X0205795Y0261887D01*
X0205795Y0262124D01*
X0209832Y0262124D01*
X0212995Y0265287D01*
X0212995Y0269760D01*
X0210232Y0272524D01*
X0212995Y0275287D01*
X0212995Y0279760D01*
X0212671Y0280084D01*
X0237053Y0280084D01*
X0236495Y0278737D01*
X0236495Y0276310D01*
X0237424Y0274068D01*
X0238968Y0272524D01*
X0237424Y0270979D01*
X0236495Y0268737D01*
X0236495Y0266310D01*
X0237424Y0264068D01*
X0238968Y0262524D01*
X0237424Y0260979D01*
X0236495Y0258737D01*
X0236495Y0256310D01*
X0237424Y0254068D01*
X0238968Y0252524D01*
X0237424Y0250979D01*
X0236495Y0248737D01*
X0236495Y0246310D01*
X0237424Y0244068D01*
X0238968Y0242524D01*
X0237424Y0240979D01*
X0237318Y0240724D01*
X0216959Y0240724D01*
X0215782Y0240236D01*
X0214882Y0239336D01*
X0211368Y0235822D01*
X0209666Y0237524D01*
X0205524Y0237524D01*
X0203724Y0235724D01*
X0196466Y0235724D01*
X0194666Y0237524D01*
X0190524Y0237524D01*
X0187595Y0234595D01*
X0187595Y0230453D01*
X0190524Y0227524D01*
X0194666Y0227524D01*
X0196466Y0229324D01*
X0203724Y0229324D01*
X0205524Y0227524D01*
X0209666Y0227524D01*
X0211466Y0229324D01*
X0213232Y0229324D01*
X0214408Y0229811D01*
X0218921Y0234324D01*
X0237318Y0234324D01*
X0237424Y0234068D01*
X0238968Y0232524D01*
X0237424Y0230979D01*
X0237318Y0230724D01*
X0216959Y0230724D01*
X0215782Y0230236D01*
X0214882Y0229336D01*
X0211368Y0225822D01*
X0209666Y0227524D01*
X0205524Y0227524D01*
X0203724Y0225724D01*
X0196466Y0225724D01*
X0194666Y0227524D01*
X0190524Y0227524D01*
X0187595Y0224595D01*
X0187595Y0220453D01*
X0190524Y0217524D01*
X0194666Y0217524D01*
X0196466Y0219324D01*
X0203724Y0219324D01*
X0205524Y0217524D01*
X0209666Y0217524D01*
X0211466Y0219324D01*
X0213232Y0219324D01*
X0214408Y0219811D01*
X0218921Y0224324D01*
X0237318Y0224324D01*
X0237424Y0224068D01*
X0239140Y0222352D01*
X0241382Y0221424D01*
X0243809Y0221424D01*
X0245195Y0221998D01*
X0245195Y0212372D01*
X0244706Y0212621D01*
X0243883Y0212888D01*
X0243028Y0213024D01*
X0242795Y0213024D01*
X0242795Y0207724D01*
X0242395Y0207724D01*
X0242395Y0213024D01*
X0242162Y0213024D01*
X0241307Y0212888D01*
X0240484Y0212621D01*
X0239712Y0212228D01*
X0239012Y0211719D01*
X0238400Y0211107D01*
X0237891Y0210406D01*
X0237498Y0209635D01*
X0237231Y0208812D01*
X0237095Y0207956D01*
X0237095Y0207724D01*
X0242395Y0207724D01*
X0242395Y0207324D01*
X0237095Y0207324D01*
X0237095Y0207091D01*
X0237231Y0206236D01*
X0237498Y0205412D01*
X0237891Y0204641D01*
X0238400Y0203941D01*
X0239012Y0203328D01*
X0239614Y0202891D01*
X0239140Y0202695D01*
X0237424Y0200979D01*
X0236495Y0198737D01*
X0236495Y0196310D01*
X0237424Y0194068D01*
X0238968Y0192524D01*
X0237424Y0190979D01*
X0236495Y0188737D01*
X0236495Y0186310D01*
X0237424Y0184068D01*
X0238968Y0182524D01*
X0237424Y0180979D01*
X0236495Y0178737D01*
X0236495Y0176310D01*
X0237424Y0174068D01*
X0238968Y0172524D01*
X0238868Y0172424D01*
X0234625Y0172424D01*
X0232495Y0174553D01*
X0232495Y0198498D01*
X0231749Y0200299D01*
X0231430Y0200619D01*
X0231411Y0200664D01*
X0230736Y0201339D01*
X0230690Y0201358D01*
X0230371Y0201678D01*
X0228570Y0202424D01*
X0226620Y0202424D01*
X0224820Y0201678D01*
X0224500Y0201358D01*
X0224455Y0201339D01*
X0223779Y0200664D01*
X0223761Y0200619D01*
X0223246Y0199828D02*
X0211971Y0199828D01*
X0212595Y0200453D02*
X0209666Y0197524D01*
X0205524Y0197524D01*
X0202595Y0200453D01*
X0202595Y0204595D01*
X0205524Y0207524D01*
X0209666Y0207524D01*
X0212595Y0204595D01*
X0212595Y0200453D01*
X0212595Y0201427D02*
X0224569Y0201427D01*
X0222695Y0198230D02*
X0210372Y0198230D01*
X0212595Y0203025D02*
X0239429Y0203025D01*
X0237904Y0204624D02*
X0212566Y0204624D01*
X0210967Y0206222D02*
X0237235Y0206222D01*
X0237095Y0207821D02*
X0165795Y0207821D01*
X0165795Y0207524D02*
X0165795Y0216198D01*
X0168822Y0219225D01*
X0170524Y0217524D01*
X0174666Y0217524D01*
X0177595Y0220453D01*
X0177595Y0224595D01*
X0174666Y0227524D01*
X0177595Y0230453D01*
X0177595Y0234595D01*
X0174666Y0237524D01*
X0170524Y0237524D01*
X0167595Y0234595D01*
X0167595Y0230453D01*
X0170524Y0227524D01*
X0174666Y0227524D01*
X0170524Y0227524D01*
X0168724Y0225724D01*
X0166959Y0225724D01*
X0165782Y0225236D01*
X0161270Y0220724D01*
X0141466Y0220724D01*
X0139666Y0222524D01*
X0135524Y0222524D01*
X0132595Y0219595D01*
X0129666Y0222524D01*
X0125524Y0222524D01*
X0122595Y0219595D01*
X0122595Y0215453D01*
X0124395Y0213653D01*
X0124395Y0202801D01*
X0124140Y0202695D01*
X0122424Y0200979D01*
X0121495Y0198737D01*
X0121495Y0196310D01*
X0122424Y0194068D01*
X0123968Y0192524D01*
X0122424Y0190979D01*
X0122318Y0190724D01*
X0102872Y0190724D01*
X0102766Y0190979D01*
X0101222Y0192524D01*
X0102766Y0194068D01*
X0103695Y0196310D01*
X0103695Y0198737D01*
X0102766Y0200979D01*
X0101051Y0202695D01*
X0098809Y0203624D01*
X0096382Y0203624D01*
X0094140Y0202695D01*
X0092424Y0200979D01*
X0091495Y0198737D01*
X0091495Y0196310D01*
X0092424Y0194068D01*
X0093968Y0192524D01*
X0092424Y0190979D01*
X0091495Y0188737D01*
X0091495Y0186310D01*
X0092424Y0184068D01*
X0093968Y0182524D01*
X0092424Y0180979D01*
X0091495Y0178737D01*
X0091495Y0176310D01*
X0092424Y0174068D01*
X0094140Y0172352D01*
X0094395Y0172247D01*
X0094395Y0167801D01*
X0094140Y0167695D01*
X0092424Y0165979D01*
X0091495Y0163737D01*
X0091495Y0161310D01*
X0092424Y0159068D01*
X0093968Y0157524D01*
X0092424Y0155979D01*
X0091495Y0153737D01*
X0091495Y0151310D01*
X0092424Y0149068D01*
X0093968Y0147524D01*
X0092424Y0145979D01*
X0091495Y0143737D01*
X0091495Y0141310D01*
X0092424Y0139068D01*
X0094140Y0137352D01*
X0094395Y0137247D01*
X0094395Y0136887D01*
X0094882Y0135711D01*
X0104882Y0125711D01*
X0105782Y0124811D01*
X0106959Y0124324D01*
X0138232Y0124324D01*
X0139408Y0124811D01*
X0149408Y0134811D01*
X0150308Y0135711D01*
X0150795Y0136887D01*
X0150795Y0176198D01*
X0153921Y0179324D01*
X0156124Y0179324D01*
X0157163Y0178285D01*
X0159001Y0177524D01*
X0166190Y0177524D01*
X0168027Y0178285D01*
X0169434Y0179691D01*
X0170195Y0181529D01*
X0170195Y0183518D01*
X0169434Y0185356D01*
X0168027Y0186762D01*
X0166190Y0187524D01*
X0168027Y0188285D01*
X0169434Y0189691D01*
X0170195Y0191529D01*
X0170195Y0193518D01*
X0169434Y0195356D01*
X0168027Y0196762D01*
X0166190Y0197524D01*
X0168027Y0198285D01*
X0169434Y0199691D01*
X0170195Y0201529D01*
X0170195Y0203518D01*
X0169434Y0205356D01*
X0168027Y0206762D01*
X0166190Y0207524D01*
X0165795Y0207524D01*
X0165795Y0209419D02*
X0237428Y0209419D01*
X0238336Y0211018D02*
X0165795Y0211018D01*
X0165795Y0212616D02*
X0240476Y0212616D01*
X0242395Y0212616D02*
X0242795Y0212616D01*
X0242795Y0211018D02*
X0242395Y0211018D01*
X0242395Y0209419D02*
X0242795Y0209419D01*
X0242795Y0207821D02*
X0242395Y0207821D01*
X0244715Y0212616D02*
X0245195Y0212616D01*
X0245195Y0214215D02*
X0165795Y0214215D01*
X0165795Y0215813D02*
X0245195Y0215813D01*
X0245195Y0217412D02*
X0167009Y0217412D01*
X0168607Y0219010D02*
X0169037Y0219010D01*
X0167595Y0222524D02*
X0162595Y0217524D01*
X0137595Y0217524D01*
X0141358Y0214215D02*
X0159395Y0214215D01*
X0159395Y0214324D02*
X0159395Y0207524D01*
X0159001Y0207524D01*
X0157163Y0206762D01*
X0155756Y0205356D01*
X0154995Y0203518D01*
X0154995Y0201529D01*
X0155756Y0199691D01*
X0157163Y0198285D01*
X0159001Y0197524D01*
X0166190Y0197524D01*
X0159001Y0197524D01*
X0157163Y0196762D01*
X0156124Y0195724D01*
X0138921Y0195724D01*
X0134408Y0200236D01*
X0133232Y0200724D01*
X0132872Y0200724D01*
X0132766Y0200979D01*
X0131051Y0202695D01*
X0130795Y0202801D01*
X0130795Y0213653D01*
X0132595Y0215453D01*
X0132595Y0219595D01*
X0132595Y0215453D01*
X0135524Y0212524D01*
X0139666Y0212524D01*
X0141466Y0214324D01*
X0159395Y0214324D01*
X0159395Y0212616D02*
X0139759Y0212616D01*
X0135431Y0212616D02*
X0130795Y0212616D01*
X0130795Y0211018D02*
X0159395Y0211018D01*
X0159395Y0209419D02*
X0130795Y0209419D01*
X0130795Y0207821D02*
X0159395Y0207821D01*
X0156623Y0206222D02*
X0130795Y0206222D01*
X0130795Y0204624D02*
X0155453Y0204624D01*
X0154995Y0203025D02*
X0130795Y0203025D01*
X0132319Y0201427D02*
X0155037Y0201427D01*
X0155700Y0199828D02*
X0134816Y0199828D01*
X0136414Y0198230D02*
X0157296Y0198230D01*
X0157032Y0196631D02*
X0138013Y0196631D01*
X0137595Y0192524D02*
X0162595Y0192524D01*
X0159001Y0187524D02*
X0166190Y0187524D01*
X0159001Y0187524D01*
X0157163Y0188285D01*
X0156124Y0189324D01*
X0136959Y0189324D01*
X0135782Y0189811D01*
X0134882Y0190711D01*
X0132146Y0193448D01*
X0131222Y0192524D01*
X0132766Y0190979D01*
X0133695Y0188737D01*
X0133695Y0186310D01*
X0132766Y0184068D01*
X0131222Y0182524D01*
X0132766Y0180979D01*
X0133695Y0178737D01*
X0133695Y0176310D01*
X0132766Y0174068D01*
X0131051Y0172352D01*
X0130795Y0172247D01*
X0130795Y0167801D01*
X0131051Y0167695D01*
X0132766Y0165979D01*
X0133695Y0163737D01*
X0133695Y0161310D01*
X0132766Y0159068D01*
X0131222Y0157524D01*
X0132766Y0155979D01*
X0133695Y0153737D01*
X0133695Y0151310D01*
X0132766Y0149068D01*
X0131051Y0147352D01*
X0130576Y0147156D01*
X0131178Y0146719D01*
X0131790Y0146107D01*
X0132299Y0145406D01*
X0132692Y0144635D01*
X0132960Y0143812D01*
X0133095Y0142956D01*
X0133095Y0142724D01*
X0127795Y0142724D01*
X0127795Y0142324D01*
X0133095Y0142324D01*
X0133095Y0142091D01*
X0132960Y0141236D01*
X0132692Y0140412D01*
X0132299Y0139641D01*
X0131790Y0138941D01*
X0131178Y0138328D01*
X0130478Y0137820D01*
X0129706Y0137427D01*
X0128883Y0137159D01*
X0128028Y0137024D01*
X0127795Y0137024D01*
X0127795Y0142324D01*
X0127395Y0142324D01*
X0122095Y0142324D01*
X0122095Y0142091D01*
X0122231Y0141236D01*
X0122498Y0140412D01*
X0122891Y0139641D01*
X0123400Y0138941D01*
X0124012Y0138328D01*
X0124712Y0137820D01*
X0125484Y0137427D01*
X0126307Y0137159D01*
X0127162Y0137024D01*
X0127395Y0137024D01*
X0127395Y0142324D01*
X0127395Y0142724D01*
X0122095Y0142724D01*
X0122095Y0142956D01*
X0122231Y0143812D01*
X0122498Y0144635D01*
X0122891Y0145406D01*
X0123400Y0146107D01*
X0124012Y0146719D01*
X0124614Y0147156D01*
X0124140Y0147352D01*
X0122424Y0149068D01*
X0122318Y0149324D01*
X0102872Y0149324D01*
X0102766Y0149068D01*
X0101222Y0147524D01*
X0102766Y0145979D01*
X0103695Y0143737D01*
X0103695Y0141310D01*
X0102766Y0139068D01*
X0101671Y0137973D01*
X0108921Y0130724D01*
X0136270Y0130724D01*
X0144395Y0138849D01*
X0144395Y0178160D01*
X0144882Y0179336D01*
X0149882Y0184336D01*
X0150782Y0185236D01*
X0151959Y0185724D01*
X0156124Y0185724D01*
X0157163Y0186762D01*
X0159001Y0187524D01*
X0157834Y0187040D02*
X0133695Y0187040D01*
X0133695Y0188639D02*
X0156809Y0188639D01*
X0151278Y0185442D02*
X0133335Y0185442D01*
X0132541Y0183843D02*
X0149389Y0183843D01*
X0147791Y0182245D02*
X0131501Y0182245D01*
X0132904Y0180646D02*
X0146192Y0180646D01*
X0144763Y0179048D02*
X0133566Y0179048D01*
X0133695Y0177449D02*
X0144395Y0177449D01*
X0144395Y0175851D02*
X0133505Y0175851D01*
X0132843Y0174252D02*
X0144395Y0174252D01*
X0144395Y0172654D02*
X0131352Y0172654D01*
X0130795Y0171055D02*
X0144395Y0171055D01*
X0144395Y0169457D02*
X0130795Y0169457D01*
X0130795Y0167858D02*
X0144395Y0167858D01*
X0144395Y0166260D02*
X0132486Y0166260D01*
X0133312Y0164661D02*
X0144395Y0164661D01*
X0144395Y0163063D02*
X0133695Y0163063D01*
X0133695Y0161464D02*
X0144395Y0161464D01*
X0144395Y0159866D02*
X0133097Y0159866D01*
X0131965Y0158267D02*
X0144395Y0158267D01*
X0144395Y0156669D02*
X0132077Y0156669D01*
X0133143Y0155070D02*
X0144395Y0155070D01*
X0144395Y0153472D02*
X0133695Y0153472D01*
X0133695Y0151873D02*
X0144395Y0151873D01*
X0144395Y0150274D02*
X0133266Y0150274D01*
X0132374Y0148676D02*
X0144395Y0148676D01*
X0144395Y0147077D02*
X0130684Y0147077D01*
X0132246Y0145479D02*
X0144395Y0145479D01*
X0144395Y0143880D02*
X0132937Y0143880D01*
X0133095Y0142282D02*
X0144395Y0142282D01*
X0144395Y0140683D02*
X0132780Y0140683D01*
X0131895Y0139085D02*
X0144395Y0139085D01*
X0143032Y0137486D02*
X0129824Y0137486D01*
X0127795Y0137486D02*
X0127395Y0137486D01*
X0127395Y0139085D02*
X0127795Y0139085D01*
X0127795Y0140683D02*
X0127395Y0140683D01*
X0127395Y0142282D02*
X0127795Y0142282D01*
X0125366Y0137486D02*
X0102158Y0137486D01*
X0102773Y0139085D02*
X0123295Y0139085D01*
X0122410Y0140683D02*
X0103435Y0140683D01*
X0103695Y0142282D02*
X0122095Y0142282D01*
X0122253Y0143880D02*
X0103636Y0143880D01*
X0102974Y0145479D02*
X0122944Y0145479D01*
X0124506Y0147077D02*
X0101668Y0147077D01*
X0102374Y0148676D02*
X0122816Y0148676D01*
X0127595Y0152524D02*
X0097595Y0152524D01*
X0091924Y0150274D02*
X0080795Y0150274D01*
X0080795Y0148676D02*
X0092816Y0148676D01*
X0093522Y0147077D02*
X0080795Y0147077D01*
X0080076Y0145479D02*
X0092217Y0145479D01*
X0091555Y0143880D02*
X0078477Y0143880D01*
X0076879Y0142282D02*
X0091495Y0142282D01*
X0091755Y0140683D02*
X0075280Y0140683D01*
X0072595Y0142524D02*
X0052595Y0142524D01*
X0056668Y0147077D02*
X0072624Y0147077D01*
X0074222Y0148676D02*
X0057374Y0148676D01*
X0058266Y0150274D02*
X0074395Y0150274D01*
X0074395Y0151873D02*
X0058695Y0151873D01*
X0058695Y0153472D02*
X0074395Y0153472D01*
X0074395Y0155070D02*
X0058143Y0155070D01*
X0057077Y0156669D02*
X0074395Y0156669D01*
X0074395Y0158267D02*
X0056965Y0158267D01*
X0058097Y0159866D02*
X0073182Y0159866D01*
X0072595Y0161464D02*
X0058695Y0161464D01*
X0058695Y0163063D02*
X0072595Y0163063D01*
X0072662Y0164661D02*
X0058312Y0164661D01*
X0057486Y0166260D02*
X0074260Y0166260D01*
X0077595Y0162524D02*
X0077595Y0147524D01*
X0072595Y0142524D01*
X0080795Y0151873D02*
X0091495Y0151873D01*
X0091495Y0153472D02*
X0080795Y0153472D01*
X0080795Y0155070D02*
X0092047Y0155070D01*
X0093113Y0156669D02*
X0080795Y0156669D01*
X0080795Y0158267D02*
X0093225Y0158267D01*
X0092094Y0159866D02*
X0082008Y0159866D01*
X0082595Y0161464D02*
X0091495Y0161464D01*
X0091495Y0163063D02*
X0082595Y0163063D01*
X0082529Y0164661D02*
X0091878Y0164661D01*
X0092704Y0166260D02*
X0080930Y0166260D01*
X0079666Y0177524D02*
X0075524Y0177524D01*
X0072595Y0180453D01*
X0072595Y0184595D01*
X0074395Y0186395D01*
X0074395Y0203653D01*
X0072595Y0205453D01*
X0072595Y0209595D01*
X0075524Y0212524D01*
X0079666Y0212524D01*
X0082595Y0215453D01*
X0082595Y0219595D01*
X0079666Y0222524D01*
X0075524Y0222524D01*
X0072595Y0219595D01*
X0072595Y0215453D01*
X0075524Y0212524D01*
X0079666Y0212524D01*
X0082595Y0209595D01*
X0082595Y0205453D01*
X0080795Y0203653D01*
X0080795Y0186395D01*
X0082595Y0184595D01*
X0082595Y0180453D01*
X0079666Y0177524D01*
X0081190Y0179048D02*
X0091624Y0179048D01*
X0091495Y0177449D02*
X0056296Y0177449D01*
X0057746Y0179048D02*
X0074000Y0179048D01*
X0072595Y0180646D02*
X0058420Y0180646D01*
X0058695Y0182245D02*
X0072595Y0182245D01*
X0072595Y0183843D02*
X0058651Y0183843D01*
X0057989Y0185442D02*
X0073442Y0185442D01*
X0074395Y0187040D02*
X0056705Y0187040D01*
X0057337Y0188639D02*
X0074395Y0188639D01*
X0074395Y0190237D02*
X0058251Y0190237D01*
X0058695Y0191836D02*
X0074395Y0191836D01*
X0074395Y0193434D02*
X0058695Y0193434D01*
X0058158Y0195033D02*
X0074395Y0195033D01*
X0074395Y0196631D02*
X0057114Y0196631D01*
X0054759Y0198230D02*
X0074395Y0198230D01*
X0074395Y0199828D02*
X0049995Y0199828D01*
X0049995Y0198230D02*
X0050431Y0198230D01*
X0049995Y0201427D02*
X0051374Y0201427D01*
X0053816Y0201427D02*
X0074395Y0201427D01*
X0074395Y0203025D02*
X0056724Y0203025D01*
X0057997Y0204624D02*
X0073424Y0204624D01*
X0072595Y0206222D02*
X0058659Y0206222D01*
X0058695Y0207821D02*
X0072595Y0207821D01*
X0072595Y0209419D02*
X0058412Y0209419D01*
X0057728Y0211018D02*
X0074018Y0211018D01*
X0075431Y0212616D02*
X0056315Y0212616D01*
X0057827Y0214215D02*
X0073833Y0214215D01*
X0072595Y0215813D02*
X0058489Y0215813D01*
X0058695Y0217412D02*
X0072595Y0217412D01*
X0072595Y0219010D02*
X0058582Y0219010D01*
X0057920Y0220609D02*
X0073609Y0220609D01*
X0075208Y0222208D02*
X0056538Y0222208D01*
X0057504Y0223806D02*
X0164352Y0223806D01*
X0162754Y0222208D02*
X0139982Y0222208D01*
X0140524Y0227524D02*
X0144666Y0227524D01*
X0147595Y0230453D01*
X0147595Y0234595D01*
X0144666Y0237524D01*
X0140524Y0237524D01*
X0137595Y0234595D01*
X0137595Y0230453D01*
X0140524Y0227524D01*
X0139446Y0228602D02*
X0058695Y0228602D01*
X0058695Y0227003D02*
X0170004Y0227003D01*
X0169446Y0228602D02*
X0145744Y0228602D01*
X0147343Y0230200D02*
X0167848Y0230200D01*
X0167595Y0231799D02*
X0147595Y0231799D01*
X0147595Y0233397D02*
X0167595Y0233397D01*
X0167996Y0234996D02*
X0147194Y0234996D01*
X0145596Y0236594D02*
X0169595Y0236594D01*
X0175596Y0236594D02*
X0189595Y0236594D01*
X0187996Y0234996D02*
X0177194Y0234996D01*
X0177595Y0233397D02*
X0187595Y0233397D01*
X0187595Y0231799D02*
X0177595Y0231799D01*
X0177343Y0230200D02*
X0187848Y0230200D01*
X0189446Y0228602D02*
X0175744Y0228602D01*
X0175187Y0227003D02*
X0190004Y0227003D01*
X0188405Y0225405D02*
X0176785Y0225405D01*
X0177595Y0223806D02*
X0187595Y0223806D01*
X0187595Y0222208D02*
X0177595Y0222208D01*
X0177595Y0220609D02*
X0187595Y0220609D01*
X0189037Y0219010D02*
X0176153Y0219010D01*
X0172595Y0222524D02*
X0167595Y0222524D01*
X0166188Y0225405D02*
X0058320Y0225405D01*
X0058089Y0230200D02*
X0137848Y0230200D01*
X0137595Y0231799D02*
X0056947Y0231799D01*
X0057095Y0233397D02*
X0137595Y0233397D01*
X0137996Y0234996D02*
X0058151Y0234996D01*
X0058695Y0236594D02*
X0139595Y0236594D01*
X0140264Y0247784D02*
X0124926Y0247784D01*
X0120264Y0247784D02*
X0104926Y0247784D01*
X0106525Y0249382D02*
X0118666Y0249382D01*
X0117595Y0250981D02*
X0107595Y0250981D01*
X0107595Y0252579D02*
X0117595Y0252579D01*
X0117595Y0254178D02*
X0107595Y0254178D01*
X0106414Y0255776D02*
X0118777Y0255776D01*
X0120375Y0257375D02*
X0104815Y0257375D01*
X0102595Y0252524D02*
X0077595Y0252524D01*
X0062595Y0267524D01*
X0052595Y0267524D01*
X0056984Y0271761D02*
X0068832Y0271761D01*
X0070430Y0270163D02*
X0064481Y0270163D01*
X0066080Y0268564D02*
X0072029Y0268564D01*
X0073627Y0266966D02*
X0067678Y0266966D01*
X0069277Y0265367D02*
X0075226Y0265367D01*
X0077595Y0267524D02*
X0067595Y0277524D01*
X0052595Y0277524D01*
X0057058Y0273360D02*
X0067233Y0273360D01*
X0070875Y0263769D02*
X0173713Y0263769D01*
X0175312Y0262170D02*
X0072474Y0262170D01*
X0074072Y0260572D02*
X0196118Y0260572D01*
X0195312Y0262170D02*
X0189879Y0262170D01*
X0191477Y0263769D02*
X0193713Y0263769D01*
X0194519Y0258973D02*
X0075671Y0258973D01*
X0077269Y0257375D02*
X0100375Y0257375D01*
X0098777Y0255776D02*
X0078868Y0255776D01*
X0074613Y0250981D02*
X0057765Y0250981D01*
X0058428Y0249382D02*
X0076817Y0249382D01*
X0073014Y0252579D02*
X0056277Y0252579D01*
X0057812Y0254178D02*
X0071416Y0254178D01*
X0069817Y0255776D02*
X0058474Y0255776D01*
X0058695Y0257375D02*
X0068219Y0257375D01*
X0066620Y0258973D02*
X0058597Y0258973D01*
X0057935Y0260572D02*
X0065021Y0260572D01*
X0063423Y0262170D02*
X0056575Y0262170D01*
X0057467Y0263769D02*
X0061824Y0263769D01*
X0058695Y0247784D02*
X0100264Y0247784D01*
X0079982Y0222208D02*
X0125208Y0222208D01*
X0123609Y0220609D02*
X0081581Y0220609D01*
X0082595Y0219010D02*
X0122595Y0219010D01*
X0122595Y0217412D02*
X0082595Y0217412D01*
X0082595Y0215813D02*
X0122595Y0215813D01*
X0123833Y0214215D02*
X0081358Y0214215D01*
X0079759Y0212616D02*
X0124395Y0212616D01*
X0124395Y0211018D02*
X0081172Y0211018D01*
X0082595Y0209419D02*
X0124395Y0209419D01*
X0124395Y0207821D02*
X0082595Y0207821D01*
X0082595Y0206222D02*
X0124395Y0206222D01*
X0124395Y0204624D02*
X0081766Y0204624D01*
X0080795Y0203025D02*
X0094937Y0203025D01*
X0092872Y0201427D02*
X0080795Y0201427D01*
X0080795Y0199828D02*
X0091947Y0199828D01*
X0091495Y0198230D02*
X0080795Y0198230D01*
X0080795Y0196631D02*
X0091495Y0196631D01*
X0092024Y0195033D02*
X0080795Y0195033D01*
X0080795Y0193434D02*
X0093058Y0193434D01*
X0093281Y0191836D02*
X0080795Y0191836D01*
X0080795Y0190237D02*
X0092117Y0190237D01*
X0091495Y0188639D02*
X0080795Y0188639D01*
X0080795Y0187040D02*
X0091495Y0187040D01*
X0091855Y0185442D02*
X0081748Y0185442D01*
X0082595Y0183843D02*
X0092649Y0183843D01*
X0093690Y0182245D02*
X0082595Y0182245D01*
X0082595Y0180646D02*
X0092286Y0180646D01*
X0091685Y0175851D02*
X0057820Y0175851D01*
X0058482Y0174252D02*
X0092348Y0174252D01*
X0093838Y0172654D02*
X0058695Y0172654D01*
X0058589Y0171055D02*
X0094395Y0171055D01*
X0094395Y0169457D02*
X0057927Y0169457D01*
X0056556Y0167858D02*
X0094395Y0167858D01*
X0097595Y0162524D02*
X0097595Y0177524D01*
X0097595Y0187524D02*
X0127595Y0187524D01*
X0123281Y0191836D02*
X0101910Y0191836D01*
X0102133Y0193434D02*
X0123058Y0193434D01*
X0122024Y0195033D02*
X0103166Y0195033D01*
X0103695Y0196631D02*
X0121495Y0196631D01*
X0121495Y0198230D02*
X0103695Y0198230D01*
X0103243Y0199828D02*
X0121947Y0199828D01*
X0122872Y0201427D02*
X0102319Y0201427D01*
X0100253Y0203025D02*
X0124395Y0203025D01*
X0127595Y0197524D02*
X0127595Y0217524D01*
X0131358Y0214215D02*
X0133833Y0214215D01*
X0132595Y0215813D02*
X0132595Y0215813D01*
X0132595Y0217412D02*
X0132595Y0217412D01*
X0132595Y0219010D02*
X0132595Y0219010D01*
X0131581Y0220609D02*
X0133609Y0220609D01*
X0135208Y0222208D02*
X0129982Y0222208D01*
X0144926Y0247784D02*
X0236495Y0247784D01*
X0236547Y0246185D02*
X0058643Y0246185D01*
X0057981Y0244587D02*
X0237209Y0244587D01*
X0238504Y0242988D02*
X0056686Y0242988D01*
X0057356Y0241390D02*
X0237834Y0241390D01*
X0242595Y0237524D02*
X0217595Y0237524D01*
X0212595Y0232524D01*
X0207595Y0232524D01*
X0192595Y0232524D01*
X0195596Y0236594D02*
X0204595Y0236594D01*
X0210596Y0236594D02*
X0212140Y0236594D01*
X0213739Y0238193D02*
X0058695Y0238193D01*
X0058258Y0239791D02*
X0215337Y0239791D01*
X0217994Y0233397D02*
X0238095Y0233397D01*
X0238243Y0231799D02*
X0216396Y0231799D01*
X0215746Y0230200D02*
X0214797Y0230200D01*
X0214148Y0228602D02*
X0210744Y0228602D01*
X0210187Y0227003D02*
X0212549Y0227003D01*
X0212595Y0222524D02*
X0217595Y0227524D01*
X0242595Y0227524D01*
X0239489Y0222208D02*
X0216805Y0222208D01*
X0218403Y0223806D02*
X0237686Y0223806D01*
X0245195Y0220609D02*
X0215206Y0220609D01*
X0212595Y0222524D02*
X0207595Y0222524D01*
X0192595Y0222524D01*
X0195187Y0227003D02*
X0205004Y0227003D01*
X0204446Y0228602D02*
X0195744Y0228602D01*
X0196153Y0219010D02*
X0204037Y0219010D01*
X0211153Y0219010D02*
X0245195Y0219010D01*
X0237872Y0201427D02*
X0230622Y0201427D01*
X0231944Y0199828D02*
X0236947Y0199828D01*
X0236495Y0198230D02*
X0232495Y0198230D01*
X0232495Y0196631D02*
X0236495Y0196631D01*
X0237024Y0195033D02*
X0232495Y0195033D01*
X0232495Y0193434D02*
X0238058Y0193434D01*
X0238281Y0191836D02*
X0232495Y0191836D01*
X0232495Y0190237D02*
X0237117Y0190237D01*
X0236495Y0188639D02*
X0232495Y0188639D01*
X0232495Y0187040D02*
X0236495Y0187040D01*
X0236855Y0185442D02*
X0232495Y0185442D01*
X0232495Y0183843D02*
X0237649Y0183843D01*
X0238690Y0182245D02*
X0232495Y0182245D01*
X0232495Y0180646D02*
X0237286Y0180646D01*
X0236624Y0179048D02*
X0232495Y0179048D01*
X0232495Y0177449D02*
X0236495Y0177449D01*
X0236685Y0175851D02*
X0232495Y0175851D01*
X0232796Y0174252D02*
X0237348Y0174252D01*
X0238838Y0172654D02*
X0234395Y0172654D01*
X0226930Y0166260D02*
X0197539Y0166260D01*
X0197501Y0166287D02*
X0196884Y0166601D01*
X0196225Y0166815D01*
X0195541Y0166924D01*
X0192595Y0166924D01*
X0189649Y0166924D01*
X0188965Y0166815D01*
X0188306Y0166601D01*
X0187689Y0166287D01*
X0187129Y0165880D01*
X0186639Y0165390D01*
X0186232Y0164830D01*
X0185917Y0164213D01*
X0185703Y0163554D01*
X0185595Y0162870D01*
X0185595Y0162524D01*
X0192595Y0162524D01*
X0192595Y0166924D01*
X0192595Y0162524D01*
X0192595Y0162524D01*
X0192595Y0162524D01*
X0199595Y0162524D01*
X0199595Y0162870D01*
X0199487Y0163554D01*
X0199273Y0164213D01*
X0198958Y0164830D01*
X0198551Y0165390D01*
X0198062Y0165880D01*
X0197501Y0166287D01*
X0196997Y0167858D02*
X0205190Y0167858D01*
X0205524Y0167524D02*
X0209666Y0167524D01*
X0212595Y0170453D01*
X0212595Y0174595D01*
X0209666Y0177524D01*
X0205524Y0177524D01*
X0202595Y0174595D01*
X0202595Y0170453D01*
X0205524Y0167524D01*
X0203591Y0169457D02*
X0199199Y0169457D01*
X0199434Y0169691D02*
X0200195Y0171529D01*
X0200195Y0173518D01*
X0199434Y0175356D01*
X0198027Y0176762D01*
X0196190Y0177524D01*
X0189001Y0177524D01*
X0187163Y0176762D01*
X0185756Y0175356D01*
X0184995Y0173518D01*
X0184995Y0171529D01*
X0185756Y0169691D01*
X0187163Y0168285D01*
X0189001Y0167524D01*
X0196190Y0167524D01*
X0198027Y0168285D01*
X0199434Y0169691D01*
X0199999Y0171055D02*
X0202595Y0171055D01*
X0202595Y0172654D02*
X0200195Y0172654D01*
X0199891Y0174252D02*
X0202595Y0174252D01*
X0203851Y0175851D02*
X0198939Y0175851D01*
X0196369Y0177449D02*
X0205450Y0177449D01*
X0205773Y0178124D02*
X0203195Y0180701D01*
X0203195Y0182524D01*
X0207595Y0182524D01*
X0207595Y0186924D01*
X0205773Y0186924D01*
X0203195Y0184346D01*
X0203195Y0182524D01*
X0207595Y0182524D01*
X0207595Y0182524D01*
X0207595Y0186924D01*
X0209418Y0186924D01*
X0211995Y0184346D01*
X0211995Y0182524D01*
X0207595Y0182524D01*
X0207595Y0182524D01*
X0207595Y0182524D01*
X0211995Y0182524D01*
X0211995Y0180701D01*
X0209418Y0178124D01*
X0207595Y0178124D01*
X0207595Y0182523D01*
X0207595Y0182523D01*
X0207595Y0178124D01*
X0205773Y0178124D01*
X0204849Y0179048D02*
X0197897Y0179048D01*
X0198062Y0179167D02*
X0198551Y0179657D01*
X0198958Y0180218D01*
X0199273Y0180835D01*
X0199487Y0181493D01*
X0199595Y0182177D01*
X0199595Y0182524D01*
X0199595Y0182870D01*
X0199487Y0183554D01*
X0199273Y0184213D01*
X0198958Y0184830D01*
X0198551Y0185390D01*
X0198062Y0185880D01*
X0197501Y0186287D01*
X0196884Y0186601D01*
X0196225Y0186815D01*
X0195541Y0186924D01*
X0192595Y0186924D01*
X0189649Y0186924D01*
X0188965Y0186815D01*
X0188306Y0186601D01*
X0187689Y0186287D01*
X0187129Y0185880D01*
X0186639Y0185390D01*
X0186232Y0184830D01*
X0185917Y0184213D01*
X0185703Y0183554D01*
X0185595Y0182870D01*
X0185595Y0182524D01*
X0192595Y0182524D01*
X0192595Y0186924D01*
X0192595Y0182524D01*
X0192595Y0182524D01*
X0192595Y0182524D01*
X0199595Y0182524D01*
X0192595Y0182524D01*
X0192595Y0182524D01*
X0185595Y0182524D01*
X0185595Y0182177D01*
X0185703Y0181493D01*
X0185917Y0180835D01*
X0186232Y0180218D01*
X0186639Y0179657D01*
X0187129Y0179167D01*
X0187689Y0178760D01*
X0188306Y0178446D01*
X0188965Y0178232D01*
X0189649Y0178124D01*
X0192595Y0178124D01*
X0192595Y0182523D01*
X0192595Y0182523D01*
X0192595Y0178124D01*
X0195541Y0178124D01*
X0196225Y0178232D01*
X0196884Y0178446D01*
X0197501Y0178760D01*
X0198062Y0179167D01*
X0199177Y0180646D02*
X0203250Y0180646D01*
X0203195Y0182245D02*
X0199595Y0182245D01*
X0199393Y0183843D02*
X0203195Y0183843D01*
X0204291Y0185442D02*
X0198500Y0185442D01*
X0198027Y0188285D02*
X0199434Y0189691D01*
X0200195Y0191529D01*
X0200195Y0193518D01*
X0199434Y0195356D01*
X0198027Y0196762D01*
X0196190Y0197524D01*
X0198027Y0198285D01*
X0199434Y0199691D01*
X0200195Y0201529D01*
X0200195Y0203518D01*
X0199434Y0205356D01*
X0198027Y0206762D01*
X0196190Y0207524D01*
X0189001Y0207524D01*
X0187163Y0206762D01*
X0185756Y0205356D01*
X0184995Y0203518D01*
X0184995Y0201529D01*
X0185756Y0199691D01*
X0187163Y0198285D01*
X0189001Y0197524D01*
X0196190Y0197524D01*
X0189001Y0197524D01*
X0187163Y0196762D01*
X0185756Y0195356D01*
X0184995Y0193518D01*
X0184995Y0191529D01*
X0185756Y0189691D01*
X0187163Y0188285D01*
X0189001Y0187524D01*
X0196190Y0187524D01*
X0198027Y0188285D01*
X0198381Y0188639D02*
X0222695Y0188639D01*
X0222695Y0190237D02*
X0199660Y0190237D01*
X0200195Y0191836D02*
X0222695Y0191836D01*
X0222695Y0193434D02*
X0200195Y0193434D01*
X0199568Y0195033D02*
X0222695Y0195033D01*
X0222695Y0196631D02*
X0198158Y0196631D01*
X0197895Y0198230D02*
X0204818Y0198230D01*
X0203219Y0199828D02*
X0199491Y0199828D01*
X0200153Y0201427D02*
X0202595Y0201427D01*
X0202595Y0203025D02*
X0200195Y0203025D01*
X0199737Y0204624D02*
X0202624Y0204624D01*
X0204223Y0206222D02*
X0198567Y0206222D01*
X0186623Y0206222D02*
X0168567Y0206222D01*
X0169737Y0204624D02*
X0185453Y0204624D01*
X0184995Y0203025D02*
X0170195Y0203025D01*
X0170153Y0201427D02*
X0185037Y0201427D01*
X0185700Y0199828D02*
X0169491Y0199828D01*
X0167895Y0198230D02*
X0187296Y0198230D01*
X0187032Y0196631D02*
X0168158Y0196631D01*
X0169568Y0195033D02*
X0185623Y0195033D01*
X0184995Y0193434D02*
X0170195Y0193434D01*
X0170195Y0191836D02*
X0184995Y0191836D01*
X0185530Y0190237D02*
X0169660Y0190237D01*
X0168381Y0188639D02*
X0186809Y0188639D01*
X0186691Y0185442D02*
X0169348Y0185442D01*
X0170060Y0183843D02*
X0185797Y0183843D01*
X0185595Y0182245D02*
X0170195Y0182245D01*
X0169829Y0180646D02*
X0186013Y0180646D01*
X0187294Y0179048D02*
X0168790Y0179048D01*
X0167501Y0176287D02*
X0166884Y0176601D01*
X0166225Y0176815D01*
X0165541Y0176924D01*
X0162595Y0176924D01*
X0159649Y0176924D01*
X0158965Y0176815D01*
X0158306Y0176601D01*
X0157689Y0176287D01*
X0157129Y0175880D01*
X0156639Y0175390D01*
X0156232Y0174830D01*
X0155917Y0174213D01*
X0155703Y0173554D01*
X0155595Y0172870D01*
X0155595Y0172524D01*
X0162595Y0172524D01*
X0162595Y0176924D01*
X0162595Y0172524D01*
X0162595Y0172524D01*
X0162595Y0172524D01*
X0169595Y0172524D01*
X0169595Y0172870D01*
X0169487Y0173554D01*
X0169273Y0174213D01*
X0168958Y0174830D01*
X0168551Y0175390D01*
X0168062Y0175880D01*
X0167501Y0176287D01*
X0168091Y0175851D02*
X0186251Y0175851D01*
X0185299Y0174252D02*
X0169253Y0174252D01*
X0169595Y0172654D02*
X0184995Y0172654D01*
X0185191Y0171055D02*
X0169344Y0171055D01*
X0169273Y0170835D02*
X0169487Y0171493D01*
X0169595Y0172177D01*
X0169595Y0172524D01*
X0162595Y0172524D01*
X0162595Y0172524D01*
X0155595Y0172524D01*
X0155595Y0172177D01*
X0155703Y0171493D01*
X0155917Y0170835D01*
X0156232Y0170218D01*
X0156639Y0169657D01*
X0157129Y0169167D01*
X0157689Y0168760D01*
X0158306Y0168446D01*
X0158965Y0168232D01*
X0159649Y0168124D01*
X0162595Y0168124D01*
X0162595Y0172523D01*
X0162595Y0172523D01*
X0162595Y0168124D01*
X0165541Y0168124D01*
X0166225Y0168232D01*
X0166884Y0168446D01*
X0167501Y0168760D01*
X0168062Y0169167D01*
X0168551Y0169657D01*
X0168958Y0170218D01*
X0169273Y0170835D01*
X0168351Y0169457D02*
X0185991Y0169457D01*
X0188193Y0167858D02*
X0150795Y0167858D01*
X0150795Y0166260D02*
X0157652Y0166260D01*
X0157689Y0166287D02*
X0157129Y0165880D01*
X0156639Y0165390D01*
X0156232Y0164830D01*
X0155917Y0164213D01*
X0155703Y0163554D01*
X0155595Y0162870D01*
X0155595Y0162524D01*
X0162595Y0162524D01*
X0162595Y0166924D01*
X0159649Y0166924D01*
X0158965Y0166815D01*
X0158306Y0166601D01*
X0157689Y0166287D01*
X0156146Y0164661D02*
X0150795Y0164661D01*
X0150795Y0163063D02*
X0155626Y0163063D01*
X0155595Y0162524D02*
X0155595Y0162177D01*
X0155703Y0161493D01*
X0155917Y0160835D01*
X0156232Y0160218D01*
X0156639Y0159657D01*
X0157129Y0159167D01*
X0157689Y0158760D01*
X0158306Y0158446D01*
X0158965Y0158232D01*
X0159649Y0158124D01*
X0162595Y0158124D01*
X0162595Y0162523D01*
X0162595Y0162523D01*
X0162595Y0158124D01*
X0165541Y0158124D01*
X0166225Y0158232D01*
X0166884Y0158446D01*
X0167501Y0158760D01*
X0168062Y0159167D01*
X0168551Y0159657D01*
X0168958Y0160218D01*
X0169273Y0160835D01*
X0169487Y0161493D01*
X0169595Y0162177D01*
X0169595Y0162524D01*
X0169595Y0162870D01*
X0169487Y0163554D01*
X0169273Y0164213D01*
X0168958Y0164830D01*
X0168551Y0165390D01*
X0168062Y0165880D01*
X0167501Y0166287D01*
X0166884Y0166601D01*
X0166225Y0166815D01*
X0165541Y0166924D01*
X0162595Y0166924D01*
X0162595Y0162524D01*
X0162595Y0162524D01*
X0162595Y0162524D01*
X0169595Y0162524D01*
X0162595Y0162524D01*
X0162595Y0162524D01*
X0155595Y0162524D01*
X0155713Y0161464D02*
X0150795Y0161464D01*
X0150795Y0159866D02*
X0156488Y0159866D01*
X0158857Y0158267D02*
X0150795Y0158267D01*
X0150795Y0156669D02*
X0157069Y0156669D01*
X0157163Y0156762D02*
X0155756Y0155356D01*
X0154995Y0153518D01*
X0154995Y0151529D01*
X0155756Y0149691D01*
X0157163Y0148285D01*
X0159001Y0147524D01*
X0166190Y0147524D01*
X0168027Y0148285D01*
X0169434Y0149691D01*
X0170195Y0151529D01*
X0170195Y0153518D01*
X0169434Y0155356D01*
X0168027Y0156762D01*
X0166190Y0157524D01*
X0159001Y0157524D01*
X0157163Y0156762D01*
X0155638Y0155070D02*
X0150795Y0155070D01*
X0150795Y0153472D02*
X0154995Y0153472D01*
X0154995Y0151873D02*
X0150795Y0151873D01*
X0150795Y0150274D02*
X0155515Y0150274D01*
X0156772Y0148676D02*
X0150795Y0148676D01*
X0150795Y0147077D02*
X0157924Y0147077D01*
X0157163Y0146762D02*
X0159001Y0147524D01*
X0166190Y0147524D01*
X0168027Y0146762D01*
X0169434Y0145356D01*
X0170195Y0143518D01*
X0170195Y0141529D01*
X0169434Y0139691D01*
X0168027Y0138285D01*
X0166190Y0137524D01*
X0159001Y0137524D01*
X0157163Y0138285D01*
X0155756Y0139691D01*
X0154995Y0141529D01*
X0154995Y0143518D01*
X0155756Y0145356D01*
X0157163Y0146762D01*
X0155879Y0145479D02*
X0150795Y0145479D01*
X0150795Y0143880D02*
X0155145Y0143880D01*
X0154995Y0142282D02*
X0150795Y0142282D01*
X0150795Y0140683D02*
X0155345Y0140683D01*
X0156363Y0139085D02*
X0150795Y0139085D01*
X0150795Y0137486D02*
X0236495Y0137486D01*
X0236639Y0139085D02*
X0198827Y0139085D01*
X0199434Y0139691D02*
X0200195Y0141529D01*
X0200195Y0143518D01*
X0199434Y0145356D01*
X0198027Y0146762D01*
X0196190Y0147524D01*
X0198027Y0148285D01*
X0199434Y0149691D01*
X0200195Y0151529D01*
X0200195Y0153518D01*
X0199434Y0155356D01*
X0198027Y0156762D01*
X0196190Y0157524D01*
X0189001Y0157524D01*
X0187163Y0156762D01*
X0185756Y0155356D01*
X0184995Y0153518D01*
X0184995Y0151529D01*
X0185756Y0149691D01*
X0187163Y0148285D01*
X0189001Y0147524D01*
X0196190Y0147524D01*
X0189001Y0147524D01*
X0187163Y0146762D01*
X0185756Y0145356D01*
X0184995Y0143518D01*
X0184995Y0141529D01*
X0185756Y0139691D01*
X0187163Y0138285D01*
X0189001Y0137524D01*
X0196190Y0137524D01*
X0198027Y0138285D01*
X0199434Y0139691D01*
X0199845Y0140683D02*
X0237301Y0140683D01*
X0238727Y0142282D02*
X0200195Y0142282D01*
X0200045Y0143880D02*
X0237612Y0143880D01*
X0236839Y0145479D02*
X0199311Y0145479D01*
X0197267Y0147077D02*
X0236495Y0147077D01*
X0236495Y0148676D02*
X0198419Y0148676D01*
X0199675Y0150274D02*
X0237132Y0150274D01*
X0238318Y0151873D02*
X0200195Y0151873D01*
X0200195Y0153472D02*
X0238021Y0153472D01*
X0237009Y0155070D02*
X0199552Y0155070D01*
X0198121Y0156669D02*
X0236495Y0156669D01*
X0236495Y0158267D02*
X0196333Y0158267D01*
X0196225Y0158232D02*
X0196884Y0158446D01*
X0197501Y0158760D01*
X0198062Y0159167D01*
X0198551Y0159657D01*
X0198958Y0160218D01*
X0199273Y0160835D01*
X0199487Y0161493D01*
X0199595Y0162177D01*
X0199595Y0162524D01*
X0192595Y0162524D01*
X0192595Y0162524D01*
X0185595Y0162524D01*
X0185595Y0162177D01*
X0185703Y0161493D01*
X0185917Y0160835D01*
X0186232Y0160218D01*
X0186639Y0159657D01*
X0187129Y0159167D01*
X0187689Y0158760D01*
X0188306Y0158446D01*
X0188965Y0158232D01*
X0189649Y0158124D01*
X0192595Y0158124D01*
X0192595Y0162523D01*
X0192595Y0162523D01*
X0192595Y0158124D01*
X0195541Y0158124D01*
X0196225Y0158232D01*
X0198703Y0159866D02*
X0236963Y0159866D01*
X0237909Y0161464D02*
X0199477Y0161464D01*
X0199565Y0163063D02*
X0230561Y0163063D01*
X0228528Y0164661D02*
X0199044Y0164661D01*
X0192595Y0164661D02*
X0192595Y0164661D01*
X0192595Y0163063D02*
X0192595Y0163063D01*
X0192595Y0161464D02*
X0192595Y0161464D01*
X0192595Y0159866D02*
X0192595Y0159866D01*
X0192595Y0158267D02*
X0192595Y0158267D01*
X0188857Y0158267D02*
X0166333Y0158267D01*
X0168121Y0156669D02*
X0187069Y0156669D01*
X0185638Y0155070D02*
X0169552Y0155070D01*
X0170195Y0153472D02*
X0184995Y0153472D01*
X0184995Y0151873D02*
X0170195Y0151873D01*
X0169675Y0150274D02*
X0185515Y0150274D01*
X0186772Y0148676D02*
X0168419Y0148676D01*
X0167267Y0147077D02*
X0187924Y0147077D01*
X0185879Y0145479D02*
X0169311Y0145479D01*
X0170045Y0143880D02*
X0185145Y0143880D01*
X0184995Y0142282D02*
X0170195Y0142282D01*
X0169845Y0140683D02*
X0185345Y0140683D01*
X0186363Y0139085D02*
X0168827Y0139085D01*
X0182163Y0121762D02*
X0180756Y0120356D01*
X0179995Y0118518D01*
X0179995Y0116529D01*
X0180756Y0114691D01*
X0182163Y0113285D01*
X0184001Y0112524D01*
X0191190Y0112524D01*
X0191483Y0112645D01*
X0201300Y0112699D01*
X0201501Y0112575D01*
X0202140Y0111032D01*
X0203922Y0109250D01*
X0206252Y0108285D01*
X0208773Y0108285D01*
X0211102Y0109250D01*
X0212884Y0111032D01*
X0213849Y0113362D01*
X0213849Y0115883D01*
X0212884Y0118212D01*
X0211102Y0119994D01*
X0208773Y0120959D01*
X0206576Y0120959D01*
X0205727Y0121483D01*
X0205431Y0121776D01*
X0204906Y0121990D01*
X0204423Y0122288D01*
X0204012Y0122355D01*
X0203626Y0122512D01*
X0203059Y0122509D01*
X0202499Y0122599D01*
X0202093Y0122504D01*
X0191381Y0122445D01*
X0191190Y0122524D01*
X0184001Y0122524D01*
X0182163Y0121762D01*
X0181902Y0121501D02*
X0152080Y0121501D01*
X0151884Y0121601D02*
X0151225Y0121815D01*
X0150541Y0121924D01*
X0147595Y0121924D01*
X0144649Y0121924D01*
X0143965Y0121815D01*
X0143306Y0121601D01*
X0142689Y0121287D01*
X0142129Y0120880D01*
X0141639Y0120390D01*
X0141232Y0119830D01*
X0140917Y0119213D01*
X0140703Y0118554D01*
X0140595Y0117870D01*
X0140595Y0117524D01*
X0147595Y0117524D01*
X0147595Y0121924D01*
X0147595Y0117524D01*
X0147595Y0117524D01*
X0147595Y0117524D01*
X0154595Y0117524D01*
X0154595Y0117870D01*
X0154487Y0118554D01*
X0154273Y0119213D01*
X0153958Y0119830D01*
X0153551Y0120390D01*
X0153062Y0120880D01*
X0152501Y0121287D01*
X0151884Y0121601D01*
X0153905Y0119903D02*
X0180569Y0119903D01*
X0179995Y0118304D02*
X0154526Y0118304D01*
X0154595Y0117524D02*
X0147595Y0117524D01*
X0147595Y0117524D01*
X0140595Y0117524D01*
X0140595Y0117177D01*
X0140703Y0116493D01*
X0140917Y0115835D01*
X0141232Y0115218D01*
X0141639Y0114657D01*
X0142129Y0114167D01*
X0142689Y0113760D01*
X0143306Y0113446D01*
X0143965Y0113232D01*
X0144649Y0113124D01*
X0147595Y0113124D01*
X0147595Y0117523D01*
X0147595Y0117523D01*
X0147595Y0113124D01*
X0150541Y0113124D01*
X0151225Y0113232D01*
X0151884Y0113446D01*
X0152501Y0113760D01*
X0153062Y0114167D01*
X0153551Y0114657D01*
X0153958Y0115218D01*
X0154273Y0115835D01*
X0154487Y0116493D01*
X0154595Y0117177D01*
X0154595Y0117524D01*
X0154520Y0116706D02*
X0179995Y0116706D01*
X0180584Y0115107D02*
X0153878Y0115107D01*
X0152007Y0113509D02*
X0181939Y0113509D01*
X0201776Y0111910D02*
X0058695Y0111910D01*
X0058695Y0113509D02*
X0143183Y0113509D01*
X0141312Y0115107D02*
X0058128Y0115107D01*
X0057040Y0116706D02*
X0140670Y0116706D01*
X0140664Y0118304D02*
X0057002Y0118304D01*
X0058112Y0119903D02*
X0141285Y0119903D01*
X0143110Y0121501D02*
X0058695Y0121501D01*
X0058695Y0123100D02*
X0245195Y0123100D01*
X0245195Y0124698D02*
X0139136Y0124698D01*
X0140894Y0126297D02*
X0245195Y0126297D01*
X0245195Y0127895D02*
X0142492Y0127895D01*
X0144091Y0129494D02*
X0245195Y0129494D01*
X0245195Y0131092D02*
X0145689Y0131092D01*
X0147288Y0132691D02*
X0238801Y0132691D01*
X0237332Y0134289D02*
X0148886Y0134289D01*
X0150381Y0135888D02*
X0236670Y0135888D01*
X0245195Y0121501D02*
X0205709Y0121501D01*
X0211193Y0119903D02*
X0223831Y0119903D01*
X0223922Y0119994D02*
X0222140Y0118212D01*
X0221175Y0115883D01*
X0221175Y0113362D01*
X0222140Y0111032D01*
X0223922Y0109250D01*
X0226252Y0108285D01*
X0228773Y0108285D01*
X0231102Y0109250D01*
X0232884Y0111032D01*
X0233849Y0113362D01*
X0233849Y0115883D01*
X0232884Y0118212D01*
X0231102Y0119994D01*
X0228773Y0120959D01*
X0226252Y0120959D01*
X0223922Y0119994D01*
X0222232Y0118304D02*
X0212792Y0118304D01*
X0213508Y0116706D02*
X0221516Y0116706D01*
X0221175Y0115107D02*
X0213849Y0115107D01*
X0213849Y0113509D02*
X0221175Y0113509D01*
X0221776Y0111910D02*
X0213248Y0111910D01*
X0212164Y0110312D02*
X0222861Y0110312D01*
X0225218Y0108713D02*
X0209806Y0108713D01*
X0205218Y0108713D02*
X0057411Y0108713D01*
X0056631Y0107115D02*
X0245195Y0107115D01*
X0245195Y0108713D02*
X0229806Y0108713D01*
X0232164Y0110312D02*
X0245195Y0110312D01*
X0245195Y0111910D02*
X0233248Y0111910D01*
X0233849Y0113509D02*
X0245195Y0113509D01*
X0245195Y0115107D02*
X0233849Y0115107D01*
X0233508Y0116706D02*
X0245195Y0116706D01*
X0245195Y0118304D02*
X0232792Y0118304D01*
X0231193Y0119903D02*
X0245195Y0119903D01*
X0245195Y0105516D02*
X0057958Y0105516D01*
X0058620Y0103918D02*
X0245195Y0103918D01*
X0245195Y0102319D02*
X0058695Y0102319D01*
X0058451Y0100721D02*
X0245195Y0100721D01*
X0202861Y0110312D02*
X0058282Y0110312D01*
X0058297Y0124698D02*
X0106054Y0124698D01*
X0104296Y0126297D02*
X0057449Y0126297D01*
X0056594Y0127895D02*
X0102698Y0127895D01*
X0101099Y0129494D02*
X0057943Y0129494D01*
X0058605Y0131092D02*
X0099501Y0131092D01*
X0097902Y0132691D02*
X0058695Y0132691D01*
X0058466Y0134289D02*
X0096304Y0134289D01*
X0094809Y0135888D02*
X0057804Y0135888D01*
X0056259Y0137486D02*
X0094006Y0137486D01*
X0092417Y0139085D02*
X0057773Y0139085D01*
X0077595Y0182524D02*
X0077595Y0207524D01*
X0077595Y0267524D02*
X0177595Y0267524D01*
X0179879Y0262170D02*
X0185312Y0262170D01*
X0183713Y0263769D02*
X0181477Y0263769D01*
X0191322Y0255776D02*
X0146414Y0255776D01*
X0144815Y0257375D02*
X0192921Y0257375D01*
X0192595Y0252524D02*
X0202595Y0262524D01*
X0202595Y0272524D01*
X0207595Y0277524D01*
X0211068Y0273360D02*
X0238132Y0273360D01*
X0238206Y0271761D02*
X0210994Y0271761D01*
X0212593Y0270163D02*
X0237086Y0270163D01*
X0236495Y0268564D02*
X0212995Y0268564D01*
X0212995Y0266966D02*
X0236495Y0266966D01*
X0236886Y0265367D02*
X0212995Y0265367D01*
X0211477Y0263769D02*
X0237723Y0263769D01*
X0238615Y0262170D02*
X0209879Y0262170D01*
X0205169Y0260572D02*
X0237255Y0260572D01*
X0236593Y0258973D02*
X0203570Y0258973D01*
X0201972Y0257375D02*
X0236495Y0257375D01*
X0236716Y0255776D02*
X0210565Y0255776D01*
X0209418Y0256924D02*
X0207595Y0256924D01*
X0205773Y0256924D01*
X0203195Y0254346D01*
X0203195Y0252524D01*
X0207595Y0252524D01*
X0207595Y0256924D01*
X0207595Y0252524D01*
X0207595Y0252524D01*
X0207595Y0252524D01*
X0211995Y0252524D01*
X0211995Y0254346D01*
X0209418Y0256924D01*
X0207595Y0255776D02*
X0207595Y0255776D01*
X0207595Y0254178D02*
X0207595Y0254178D01*
X0207595Y0252579D02*
X0207595Y0252579D01*
X0207595Y0252524D02*
X0207595Y0252524D01*
X0203195Y0252524D01*
X0203195Y0250701D01*
X0205773Y0248124D01*
X0207595Y0248124D01*
X0207595Y0252523D01*
X0207595Y0252523D01*
X0207595Y0248124D01*
X0209418Y0248124D01*
X0211995Y0250701D01*
X0211995Y0252524D01*
X0207595Y0252524D01*
X0207595Y0250981D02*
X0207595Y0250981D01*
X0207595Y0249382D02*
X0207595Y0249382D01*
X0204514Y0249382D02*
X0193373Y0249382D01*
X0195578Y0250981D02*
X0203195Y0250981D01*
X0203195Y0252579D02*
X0197176Y0252579D01*
X0198775Y0254178D02*
X0203195Y0254178D01*
X0204625Y0255776D02*
X0200373Y0255776D01*
X0192595Y0252524D02*
X0142595Y0252524D01*
X0122595Y0252524D01*
X0126414Y0255776D02*
X0138777Y0255776D01*
X0140375Y0257375D02*
X0124815Y0257375D01*
X0162595Y0217524D02*
X0162595Y0202524D01*
X0167357Y0187040D02*
X0222695Y0187040D01*
X0222695Y0185442D02*
X0210900Y0185442D01*
X0211995Y0183843D02*
X0222695Y0183843D01*
X0222695Y0182245D02*
X0211995Y0182245D01*
X0211940Y0180646D02*
X0222695Y0180646D01*
X0222695Y0179048D02*
X0210342Y0179048D01*
X0209741Y0177449D02*
X0222695Y0177449D01*
X0222695Y0175851D02*
X0211339Y0175851D01*
X0212595Y0174252D02*
X0222695Y0174252D01*
X0222695Y0172654D02*
X0212595Y0172654D01*
X0212595Y0171055D02*
X0222900Y0171055D01*
X0223732Y0169457D02*
X0211599Y0169457D01*
X0210001Y0167858D02*
X0225331Y0167858D01*
X0207595Y0179048D02*
X0207595Y0179048D01*
X0207595Y0180646D02*
X0207595Y0180646D01*
X0207595Y0182245D02*
X0207595Y0182245D01*
X0207595Y0183843D02*
X0207595Y0183843D01*
X0207595Y0185442D02*
X0207595Y0185442D01*
X0192595Y0185442D02*
X0192595Y0185442D01*
X0192595Y0183843D02*
X0192595Y0183843D01*
X0192595Y0182245D02*
X0192595Y0182245D01*
X0192595Y0180646D02*
X0192595Y0180646D01*
X0192595Y0179048D02*
X0192595Y0179048D01*
X0188821Y0177449D02*
X0152046Y0177449D01*
X0150795Y0175851D02*
X0157100Y0175851D01*
X0155938Y0174252D02*
X0150795Y0174252D01*
X0150795Y0172654D02*
X0155595Y0172654D01*
X0155846Y0171055D02*
X0150795Y0171055D01*
X0150795Y0169457D02*
X0156840Y0169457D01*
X0162595Y0169457D02*
X0162595Y0169457D01*
X0162595Y0171055D02*
X0162595Y0171055D01*
X0162595Y0172654D02*
X0162595Y0172654D01*
X0162595Y0174252D02*
X0162595Y0174252D01*
X0162595Y0175851D02*
X0162595Y0175851D01*
X0162595Y0182524D02*
X0152595Y0182524D01*
X0147595Y0177524D01*
X0147595Y0137524D01*
X0137595Y0127524D01*
X0107595Y0127524D01*
X0097595Y0137524D01*
X0097595Y0142524D01*
X0103756Y0135888D02*
X0141434Y0135888D01*
X0139835Y0134289D02*
X0105355Y0134289D01*
X0106953Y0132691D02*
X0138237Y0132691D01*
X0136638Y0131092D02*
X0108552Y0131092D01*
X0127595Y0162524D02*
X0127595Y0177524D01*
X0133074Y0190237D02*
X0135356Y0190237D01*
X0133757Y0191836D02*
X0131910Y0191836D01*
X0132133Y0193434D02*
X0132159Y0193434D01*
X0132595Y0197524D02*
X0137595Y0192524D01*
X0132595Y0197524D02*
X0127595Y0197524D01*
X0153645Y0179048D02*
X0156400Y0179048D01*
X0162595Y0166260D02*
X0162595Y0166260D01*
X0162595Y0164661D02*
X0162595Y0164661D01*
X0162595Y0163063D02*
X0162595Y0163063D01*
X0162595Y0161464D02*
X0162595Y0161464D01*
X0162595Y0159866D02*
X0162595Y0159866D01*
X0162595Y0158267D02*
X0162595Y0158267D01*
X0167539Y0166260D02*
X0187652Y0166260D01*
X0186146Y0164661D02*
X0169044Y0164661D01*
X0169565Y0163063D02*
X0185626Y0163063D01*
X0185713Y0161464D02*
X0169477Y0161464D01*
X0168703Y0159866D02*
X0186488Y0159866D01*
X0192595Y0166260D02*
X0192595Y0166260D01*
X0147595Y0121501D02*
X0147595Y0121501D01*
X0147595Y0119903D02*
X0147595Y0119903D01*
X0147595Y0118304D02*
X0147595Y0118304D01*
X0147595Y0116706D02*
X0147595Y0116706D01*
X0147595Y0115107D02*
X0147595Y0115107D01*
X0147595Y0113509D02*
X0147595Y0113509D01*
X0210676Y0249382D02*
X0236762Y0249382D01*
X0237426Y0250981D02*
X0211995Y0250981D01*
X0211995Y0252579D02*
X0238913Y0252579D01*
X0237378Y0254178D02*
X0211995Y0254178D01*
X0212667Y0274958D02*
X0237055Y0274958D01*
X0236495Y0276557D02*
X0212995Y0276557D01*
X0212995Y0278155D02*
X0236495Y0278155D01*
X0236916Y0279754D02*
X0212995Y0279754D01*
M02*
