G75*
%MOIN*%
%OFA0B0*%
%FSLAX25Y25*%
%IPPOS*%
%LPD*%
%AMOC8*
5,1,8,0,0,1.08239X$1,22.5*
%
%ADD10C,0.00300*%
%ADD11C,0.00600*%
%ADD12C,0.00500*%
%ADD13C,0.00400*%
%ADD14C,0.00800*%
%ADD15R,0.02000X0.08000*%
%ADD16R,0.07500X0.02000*%
%ADD17C,0.01000*%
%ADD18C,0.01200*%
D10*
X0078980Y0102674D02*
X0078980Y0106377D01*
X0080214Y0106377D02*
X0077745Y0106377D01*
X0077745Y0107674D02*
X0077745Y0111377D01*
X0079597Y0111377D01*
X0080214Y0110760D01*
X0080214Y0109525D01*
X0079597Y0108908D01*
X0077745Y0108908D01*
X0078980Y0108908D02*
X0080214Y0107674D01*
X0081428Y0107674D02*
X0081428Y0111377D01*
X0083897Y0111377D01*
X0085111Y0111377D02*
X0085111Y0108908D01*
X0086346Y0107674D01*
X0087580Y0108908D01*
X0087580Y0111377D01*
X0087574Y0112674D02*
X0086339Y0112674D01*
X0086956Y0112674D02*
X0086956Y0115142D01*
X0086339Y0115142D01*
X0085118Y0114525D02*
X0083884Y0114525D01*
X0084501Y0115760D02*
X0085118Y0116377D01*
X0084501Y0115760D02*
X0084501Y0112674D01*
X0082663Y0112674D02*
X0081428Y0112674D01*
X0082045Y0112674D02*
X0082045Y0115142D01*
X0081428Y0115142D01*
X0082045Y0116377D02*
X0082045Y0116994D01*
X0080214Y0116377D02*
X0080214Y0112674D01*
X0078980Y0113908D01*
X0077745Y0112674D01*
X0077745Y0116377D01*
X0081428Y0109525D02*
X0082663Y0109525D01*
X0083897Y0107674D02*
X0081428Y0107674D01*
X0081428Y0106377D02*
X0081428Y0102674D01*
X0081428Y0104525D02*
X0082045Y0105142D01*
X0083280Y0105142D01*
X0083897Y0104525D01*
X0083897Y0102674D01*
X0085111Y0103291D02*
X0085729Y0102674D01*
X0086963Y0102674D01*
X0087580Y0103291D01*
X0087580Y0104525D01*
X0086963Y0105142D01*
X0085729Y0105142D01*
X0085111Y0104525D01*
X0085111Y0103291D01*
X0088795Y0102674D02*
X0088795Y0105142D01*
X0089412Y0105142D01*
X0090029Y0104525D01*
X0090646Y0105142D01*
X0091263Y0104525D01*
X0091263Y0102674D01*
X0090029Y0102674D02*
X0090029Y0104525D01*
X0092478Y0107674D02*
X0092478Y0110142D01*
X0093712Y0111377D01*
X0094946Y0110142D01*
X0094946Y0107674D01*
X0096161Y0106377D02*
X0098012Y0106377D01*
X0098630Y0105760D01*
X0098630Y0105142D01*
X0098012Y0104525D01*
X0096161Y0104525D01*
X0096161Y0102674D02*
X0096161Y0106377D01*
X0098012Y0104525D02*
X0098630Y0103908D01*
X0098630Y0103291D01*
X0098012Y0102674D01*
X0096161Y0102674D01*
X0099844Y0103291D02*
X0100461Y0102674D01*
X0101696Y0102674D01*
X0102313Y0103291D01*
X0102313Y0104525D01*
X0101696Y0105142D01*
X0100461Y0105142D01*
X0099844Y0104525D01*
X0099844Y0103291D01*
X0103527Y0103291D02*
X0103527Y0104525D01*
X0104144Y0105142D01*
X0105996Y0105142D01*
X0105996Y0102056D01*
X0105379Y0101439D01*
X0104762Y0101439D01*
X0104144Y0102674D02*
X0105996Y0102674D01*
X0107210Y0103291D02*
X0107210Y0104525D01*
X0107827Y0105142D01*
X0109062Y0105142D01*
X0109679Y0104525D01*
X0109679Y0103908D01*
X0107210Y0103908D01*
X0107210Y0103291D02*
X0107827Y0102674D01*
X0109062Y0102674D01*
X0110893Y0102674D02*
X0110893Y0105142D01*
X0110893Y0103908D02*
X0112128Y0105142D01*
X0112745Y0105142D01*
X0113963Y0104525D02*
X0114580Y0105142D01*
X0116431Y0105142D01*
X0115814Y0103908D02*
X0114580Y0103908D01*
X0113963Y0104525D01*
X0113963Y0102674D02*
X0115814Y0102674D01*
X0116431Y0103291D01*
X0115814Y0103908D01*
X0111517Y0112674D02*
X0112134Y0113291D01*
X0111517Y0113908D01*
X0110283Y0113908D01*
X0109666Y0114525D01*
X0110283Y0115142D01*
X0112134Y0115142D01*
X0111517Y0112674D02*
X0109666Y0112674D01*
X0108451Y0113908D02*
X0108451Y0114525D01*
X0107834Y0115142D01*
X0106600Y0115142D01*
X0105983Y0114525D01*
X0105983Y0113291D01*
X0106600Y0112674D01*
X0107834Y0112674D01*
X0108451Y0113908D02*
X0105983Y0113908D01*
X0104762Y0112674D02*
X0103527Y0112674D01*
X0104144Y0112674D02*
X0104144Y0116377D01*
X0103527Y0116377D01*
X0101696Y0115142D02*
X0102313Y0114525D01*
X0102313Y0112674D01*
X0100461Y0112674D01*
X0099844Y0113291D01*
X0100461Y0113908D01*
X0102313Y0113908D01*
X0101696Y0115142D02*
X0100461Y0115142D01*
X0098630Y0115142D02*
X0096778Y0115142D01*
X0096161Y0114525D01*
X0096161Y0113291D01*
X0096778Y0112674D01*
X0098630Y0112674D01*
X0094946Y0113291D02*
X0094329Y0112674D01*
X0093095Y0112674D01*
X0092478Y0113291D01*
X0093095Y0114525D02*
X0094329Y0114525D01*
X0094946Y0113908D01*
X0094946Y0113291D01*
X0093095Y0114525D02*
X0092478Y0115142D01*
X0092478Y0115760D01*
X0093095Y0116377D01*
X0094329Y0116377D01*
X0094946Y0115760D01*
X0094946Y0109525D02*
X0092478Y0109525D01*
X0086956Y0116377D02*
X0086956Y0116994D01*
X0103527Y0103291D02*
X0104144Y0102674D01*
X0075734Y0228474D02*
X0073799Y0228474D01*
X0074766Y0228474D02*
X0074766Y0231376D01*
X0073799Y0230409D01*
X0072787Y0230892D02*
X0072303Y0231376D01*
X0070852Y0231376D01*
X0070852Y0228474D01*
X0072303Y0228474D01*
X0072787Y0228957D01*
X0072787Y0230892D01*
X0069841Y0231376D02*
X0067906Y0231376D01*
X0067906Y0228474D01*
X0069841Y0228474D01*
X0068873Y0229925D02*
X0067906Y0229925D01*
X0066894Y0228474D02*
X0064959Y0228474D01*
X0064959Y0231376D01*
D11*
X0057895Y0101391D02*
X0058462Y0100824D01*
X0059597Y0100824D01*
X0060164Y0101391D01*
X0060164Y0101958D01*
X0059597Y0102525D01*
X0058462Y0102525D01*
X0057895Y0103092D01*
X0057895Y0103659D01*
X0058462Y0104227D01*
X0059597Y0104227D01*
X0060164Y0103659D01*
X0061578Y0103659D02*
X0062145Y0104227D01*
X0063280Y0104227D01*
X0063847Y0103659D01*
X0065261Y0104227D02*
X0065261Y0100824D01*
X0067530Y0100824D01*
X0063847Y0101391D02*
X0063280Y0100824D01*
X0062145Y0100824D01*
X0061578Y0101391D01*
X0061578Y0103659D01*
X0061578Y0110824D02*
X0063280Y0110824D01*
X0063847Y0111391D01*
X0063847Y0113659D01*
X0063280Y0114227D01*
X0061578Y0114227D01*
X0061578Y0110824D01*
X0060164Y0111391D02*
X0059597Y0110824D01*
X0058462Y0110824D01*
X0057895Y0111391D01*
X0058462Y0112525D02*
X0057895Y0113092D01*
X0057895Y0113659D01*
X0058462Y0114227D01*
X0059597Y0114227D01*
X0060164Y0113659D01*
X0059597Y0112525D02*
X0060164Y0111958D01*
X0060164Y0111391D01*
X0059597Y0112525D02*
X0058462Y0112525D01*
X0065261Y0112525D02*
X0067530Y0112525D01*
X0067530Y0113092D02*
X0067530Y0110824D01*
X0067530Y0113092D02*
X0066396Y0114227D01*
X0065261Y0113092D01*
X0065261Y0110824D01*
X0065261Y0120824D02*
X0067530Y0120824D01*
X0068945Y0120824D02*
X0068945Y0124227D01*
X0071213Y0124227D01*
X0070079Y0122525D02*
X0068945Y0122525D01*
X0067530Y0124227D02*
X0065261Y0124227D01*
X0065261Y0120824D01*
X0063847Y0120824D02*
X0062713Y0121958D01*
X0063280Y0121958D02*
X0061578Y0121958D01*
X0061578Y0120824D02*
X0061578Y0124227D01*
X0063280Y0124227D01*
X0063847Y0123659D01*
X0063847Y0122525D01*
X0063280Y0121958D01*
X0065261Y0122525D02*
X0066396Y0122525D01*
X0060164Y0122525D02*
X0057895Y0122525D01*
X0057895Y0123092D02*
X0059029Y0124227D01*
X0060164Y0123092D01*
X0060164Y0120824D01*
X0057895Y0120824D02*
X0057895Y0123092D01*
X0058462Y0130824D02*
X0057895Y0131391D01*
X0057895Y0133659D01*
X0058462Y0134227D01*
X0059597Y0134227D01*
X0060164Y0133659D01*
X0060164Y0132525D02*
X0059029Y0132525D01*
X0060164Y0132525D02*
X0060164Y0131391D01*
X0059597Y0130824D01*
X0058462Y0130824D01*
X0061578Y0130824D02*
X0061578Y0134227D01*
X0063847Y0130824D01*
X0063847Y0134227D01*
X0065261Y0134227D02*
X0066963Y0134227D01*
X0067530Y0133659D01*
X0067530Y0131391D01*
X0066963Y0130824D01*
X0065261Y0130824D01*
X0065261Y0134227D01*
X0063280Y0140824D02*
X0062145Y0140824D01*
X0061578Y0141391D01*
X0060164Y0140824D02*
X0057895Y0140824D01*
X0059029Y0140824D02*
X0059029Y0144227D01*
X0057895Y0143092D01*
X0061578Y0143659D02*
X0062145Y0144227D01*
X0063280Y0144227D01*
X0063847Y0143659D01*
X0063847Y0143092D01*
X0063280Y0142525D01*
X0063847Y0141958D01*
X0063847Y0141391D01*
X0063280Y0140824D01*
X0063280Y0142525D02*
X0062713Y0142525D01*
X0063847Y0150824D02*
X0061578Y0150824D01*
X0063847Y0153092D01*
X0063847Y0153659D01*
X0063280Y0154227D01*
X0062145Y0154227D01*
X0061578Y0153659D01*
X0059029Y0154227D02*
X0059029Y0150824D01*
X0057895Y0150824D02*
X0060164Y0150824D01*
X0057895Y0153092D02*
X0059029Y0154227D01*
X0059029Y0160824D02*
X0059029Y0164227D01*
X0057895Y0163092D01*
X0057895Y0160824D02*
X0060164Y0160824D01*
X0061578Y0160824D02*
X0063847Y0160824D01*
X0062713Y0160824D02*
X0062713Y0164227D01*
X0061578Y0163092D01*
X0062145Y0170824D02*
X0061578Y0171391D01*
X0063847Y0173659D01*
X0063847Y0171391D01*
X0063280Y0170824D01*
X0062145Y0170824D01*
X0061578Y0171391D02*
X0061578Y0173659D01*
X0062145Y0174227D01*
X0063280Y0174227D01*
X0063847Y0173659D01*
X0060164Y0170824D02*
X0057895Y0170824D01*
X0059029Y0170824D02*
X0059029Y0174227D01*
X0057895Y0173092D01*
X0058462Y0180824D02*
X0059597Y0180824D01*
X0060164Y0181391D01*
X0060164Y0183659D01*
X0059597Y0184227D01*
X0058462Y0184227D01*
X0057895Y0183659D01*
X0057895Y0183092D01*
X0058462Y0182525D01*
X0060164Y0182525D01*
X0058462Y0180824D02*
X0057895Y0181391D01*
X0058462Y0190824D02*
X0057895Y0191391D01*
X0057895Y0191958D01*
X0058462Y0192525D01*
X0059597Y0192525D01*
X0060164Y0191958D01*
X0060164Y0191391D01*
X0059597Y0190824D01*
X0058462Y0190824D01*
X0058462Y0192525D02*
X0057895Y0193092D01*
X0057895Y0193659D01*
X0058462Y0194227D01*
X0059597Y0194227D01*
X0060164Y0193659D01*
X0060164Y0193092D01*
X0059597Y0192525D01*
X0057895Y0205824D02*
X0057895Y0206391D01*
X0060164Y0208659D01*
X0060164Y0209227D01*
X0057895Y0209227D01*
X0058462Y0215824D02*
X0057895Y0216391D01*
X0057895Y0217525D01*
X0059597Y0217525D01*
X0060164Y0216958D01*
X0060164Y0216391D01*
X0059597Y0215824D01*
X0058462Y0215824D01*
X0057895Y0217525D02*
X0059029Y0218659D01*
X0060164Y0219227D01*
X0059597Y0225824D02*
X0058462Y0225824D01*
X0057895Y0226391D01*
X0057895Y0227525D02*
X0059029Y0228092D01*
X0059597Y0228092D01*
X0060164Y0227525D01*
X0060164Y0226391D01*
X0059597Y0225824D01*
X0057895Y0227525D02*
X0057895Y0229227D01*
X0060164Y0229227D01*
X0059597Y0235824D02*
X0059597Y0239227D01*
X0057895Y0237525D01*
X0060164Y0237525D01*
X0059597Y0245824D02*
X0058462Y0245824D01*
X0057895Y0246391D01*
X0059029Y0247525D02*
X0059597Y0247525D01*
X0060164Y0246958D01*
X0060164Y0246391D01*
X0059597Y0245824D01*
X0059597Y0247525D02*
X0060164Y0248092D01*
X0060164Y0248659D01*
X0059597Y0249227D01*
X0058462Y0249227D01*
X0057895Y0248659D01*
X0057895Y0255824D02*
X0060164Y0258092D01*
X0060164Y0258659D01*
X0059597Y0259227D01*
X0058462Y0259227D01*
X0057895Y0258659D01*
X0057895Y0255824D02*
X0060164Y0255824D01*
X0059029Y0265824D02*
X0059029Y0269227D01*
X0057895Y0269227D02*
X0060164Y0269227D01*
X0061578Y0269227D02*
X0063847Y0265824D01*
X0061578Y0265824D02*
X0063847Y0269227D01*
X0063847Y0275824D02*
X0061578Y0279227D01*
X0060164Y0278659D02*
X0060164Y0277525D01*
X0059597Y0276958D01*
X0057895Y0276958D01*
X0057895Y0275824D02*
X0057895Y0279227D01*
X0059597Y0279227D01*
X0060164Y0278659D01*
X0059029Y0276958D02*
X0060164Y0275824D01*
X0061578Y0275824D02*
X0063847Y0279227D01*
X0106595Y0256024D02*
X0107595Y0256024D01*
X0108095Y0255524D01*
X0117095Y0255524D01*
X0117595Y0256024D01*
X0118595Y0256024D01*
X0118655Y0256022D01*
X0118716Y0256017D01*
X0118775Y0256008D01*
X0118834Y0255995D01*
X0118893Y0255979D01*
X0118950Y0255959D01*
X0119005Y0255936D01*
X0119060Y0255909D01*
X0119112Y0255880D01*
X0119163Y0255847D01*
X0119212Y0255811D01*
X0119258Y0255773D01*
X0119302Y0255731D01*
X0119344Y0255687D01*
X0119382Y0255641D01*
X0119418Y0255592D01*
X0119451Y0255541D01*
X0119480Y0255489D01*
X0119507Y0255434D01*
X0119530Y0255379D01*
X0119550Y0255322D01*
X0119566Y0255263D01*
X0119579Y0255204D01*
X0119588Y0255145D01*
X0119593Y0255084D01*
X0119595Y0255024D01*
X0119595Y0250024D02*
X0119593Y0249964D01*
X0119588Y0249903D01*
X0119579Y0249844D01*
X0119566Y0249785D01*
X0119550Y0249726D01*
X0119530Y0249669D01*
X0119507Y0249614D01*
X0119480Y0249559D01*
X0119451Y0249507D01*
X0119418Y0249456D01*
X0119382Y0249407D01*
X0119344Y0249361D01*
X0119302Y0249317D01*
X0119258Y0249275D01*
X0119212Y0249237D01*
X0119163Y0249201D01*
X0119112Y0249168D01*
X0119060Y0249139D01*
X0119005Y0249112D01*
X0118950Y0249089D01*
X0118893Y0249069D01*
X0118834Y0249053D01*
X0118775Y0249040D01*
X0118716Y0249031D01*
X0118655Y0249026D01*
X0118595Y0249024D01*
X0117595Y0249024D01*
X0117095Y0249524D01*
X0108095Y0249524D01*
X0107595Y0249024D01*
X0106595Y0249024D01*
X0106535Y0249026D01*
X0106474Y0249031D01*
X0106415Y0249040D01*
X0106356Y0249053D01*
X0106297Y0249069D01*
X0106240Y0249089D01*
X0106185Y0249112D01*
X0106130Y0249139D01*
X0106078Y0249168D01*
X0106027Y0249201D01*
X0105978Y0249237D01*
X0105932Y0249275D01*
X0105888Y0249317D01*
X0105846Y0249361D01*
X0105808Y0249407D01*
X0105772Y0249456D01*
X0105739Y0249507D01*
X0105710Y0249559D01*
X0105683Y0249614D01*
X0105660Y0249669D01*
X0105640Y0249726D01*
X0105624Y0249785D01*
X0105611Y0249844D01*
X0105602Y0249903D01*
X0105597Y0249964D01*
X0105595Y0250024D01*
X0105595Y0255024D02*
X0105597Y0255084D01*
X0105602Y0255145D01*
X0105611Y0255204D01*
X0105624Y0255263D01*
X0105640Y0255322D01*
X0105660Y0255379D01*
X0105683Y0255434D01*
X0105710Y0255489D01*
X0105739Y0255541D01*
X0105772Y0255592D01*
X0105808Y0255641D01*
X0105846Y0255687D01*
X0105888Y0255731D01*
X0105932Y0255773D01*
X0105978Y0255811D01*
X0106027Y0255847D01*
X0106078Y0255880D01*
X0106130Y0255909D01*
X0106185Y0255936D01*
X0106240Y0255959D01*
X0106297Y0255979D01*
X0106356Y0255995D01*
X0106415Y0256008D01*
X0106474Y0256017D01*
X0106535Y0256022D01*
X0106595Y0256024D01*
X0126095Y0222024D02*
X0139095Y0222024D01*
X0139182Y0222022D01*
X0139269Y0222016D01*
X0139356Y0222007D01*
X0139442Y0221994D01*
X0139528Y0221977D01*
X0139613Y0221956D01*
X0139696Y0221931D01*
X0139779Y0221903D01*
X0139860Y0221872D01*
X0139940Y0221837D01*
X0140018Y0221798D01*
X0140095Y0221756D01*
X0140170Y0221711D01*
X0140242Y0221662D01*
X0140313Y0221611D01*
X0140381Y0221556D01*
X0140446Y0221499D01*
X0140509Y0221438D01*
X0140570Y0221375D01*
X0140627Y0221310D01*
X0140682Y0221242D01*
X0140733Y0221171D01*
X0140782Y0221099D01*
X0140827Y0221024D01*
X0140869Y0220947D01*
X0140908Y0220869D01*
X0140943Y0220789D01*
X0140974Y0220708D01*
X0141002Y0220625D01*
X0141027Y0220542D01*
X0141048Y0220457D01*
X0141065Y0220371D01*
X0141078Y0220285D01*
X0141087Y0220198D01*
X0141093Y0220111D01*
X0141095Y0220024D01*
X0141095Y0215024D01*
X0141093Y0214937D01*
X0141087Y0214850D01*
X0141078Y0214763D01*
X0141065Y0214677D01*
X0141048Y0214591D01*
X0141027Y0214506D01*
X0141002Y0214423D01*
X0140974Y0214340D01*
X0140943Y0214259D01*
X0140908Y0214179D01*
X0140869Y0214101D01*
X0140827Y0214024D01*
X0140782Y0213949D01*
X0140733Y0213877D01*
X0140682Y0213806D01*
X0140627Y0213738D01*
X0140570Y0213673D01*
X0140509Y0213610D01*
X0140446Y0213549D01*
X0140381Y0213492D01*
X0140313Y0213437D01*
X0140242Y0213386D01*
X0140170Y0213337D01*
X0140095Y0213292D01*
X0140018Y0213250D01*
X0139940Y0213211D01*
X0139860Y0213176D01*
X0139779Y0213145D01*
X0139696Y0213117D01*
X0139613Y0213092D01*
X0139528Y0213071D01*
X0139442Y0213054D01*
X0139356Y0213041D01*
X0139269Y0213032D01*
X0139182Y0213026D01*
X0139095Y0213024D01*
X0126095Y0213024D01*
X0126008Y0213026D01*
X0125921Y0213032D01*
X0125834Y0213041D01*
X0125748Y0213054D01*
X0125662Y0213071D01*
X0125577Y0213092D01*
X0125494Y0213117D01*
X0125411Y0213145D01*
X0125330Y0213176D01*
X0125250Y0213211D01*
X0125172Y0213250D01*
X0125095Y0213292D01*
X0125020Y0213337D01*
X0124948Y0213386D01*
X0124877Y0213437D01*
X0124809Y0213492D01*
X0124744Y0213549D01*
X0124681Y0213610D01*
X0124620Y0213673D01*
X0124563Y0213738D01*
X0124508Y0213806D01*
X0124457Y0213877D01*
X0124408Y0213949D01*
X0124363Y0214024D01*
X0124321Y0214101D01*
X0124282Y0214179D01*
X0124247Y0214259D01*
X0124216Y0214340D01*
X0124188Y0214423D01*
X0124163Y0214506D01*
X0124142Y0214591D01*
X0124125Y0214677D01*
X0124112Y0214763D01*
X0124103Y0214850D01*
X0124097Y0214937D01*
X0124095Y0215024D01*
X0124095Y0220024D01*
X0124097Y0220111D01*
X0124103Y0220198D01*
X0124112Y0220285D01*
X0124125Y0220371D01*
X0124142Y0220457D01*
X0124163Y0220542D01*
X0124188Y0220625D01*
X0124216Y0220708D01*
X0124247Y0220789D01*
X0124282Y0220869D01*
X0124321Y0220947D01*
X0124363Y0221024D01*
X0124408Y0221099D01*
X0124457Y0221171D01*
X0124508Y0221242D01*
X0124563Y0221310D01*
X0124620Y0221375D01*
X0124681Y0221438D01*
X0124744Y0221499D01*
X0124809Y0221556D01*
X0124877Y0221611D01*
X0124948Y0221662D01*
X0125020Y0221711D01*
X0125095Y0221756D01*
X0125172Y0221798D01*
X0125250Y0221837D01*
X0125330Y0221872D01*
X0125411Y0221903D01*
X0125494Y0221931D01*
X0125577Y0221956D01*
X0125662Y0221977D01*
X0125748Y0221994D01*
X0125834Y0222007D01*
X0125921Y0222016D01*
X0126008Y0222022D01*
X0126095Y0222024D01*
X0139095Y0236524D02*
X0139095Y0237524D01*
X0139595Y0238024D01*
X0139595Y0247024D01*
X0139095Y0247524D01*
X0139095Y0248524D01*
X0139097Y0248584D01*
X0139102Y0248645D01*
X0139111Y0248704D01*
X0139124Y0248763D01*
X0139140Y0248822D01*
X0139160Y0248879D01*
X0139183Y0248934D01*
X0139210Y0248989D01*
X0139239Y0249041D01*
X0139272Y0249092D01*
X0139308Y0249141D01*
X0139346Y0249187D01*
X0139388Y0249231D01*
X0139432Y0249273D01*
X0139478Y0249311D01*
X0139527Y0249347D01*
X0139578Y0249380D01*
X0139630Y0249409D01*
X0139685Y0249436D01*
X0139740Y0249459D01*
X0139797Y0249479D01*
X0139856Y0249495D01*
X0139915Y0249508D01*
X0139974Y0249517D01*
X0140035Y0249522D01*
X0140095Y0249524D01*
X0145095Y0249524D02*
X0145155Y0249522D01*
X0145216Y0249517D01*
X0145275Y0249508D01*
X0145334Y0249495D01*
X0145393Y0249479D01*
X0145450Y0249459D01*
X0145505Y0249436D01*
X0145560Y0249409D01*
X0145612Y0249380D01*
X0145663Y0249347D01*
X0145712Y0249311D01*
X0145758Y0249273D01*
X0145802Y0249231D01*
X0145844Y0249187D01*
X0145882Y0249141D01*
X0145918Y0249092D01*
X0145951Y0249041D01*
X0145980Y0248989D01*
X0146007Y0248934D01*
X0146030Y0248879D01*
X0146050Y0248822D01*
X0146066Y0248763D01*
X0146079Y0248704D01*
X0146088Y0248645D01*
X0146093Y0248584D01*
X0146095Y0248524D01*
X0146095Y0247524D01*
X0145595Y0247024D01*
X0145595Y0238024D01*
X0146095Y0237524D01*
X0146095Y0236524D01*
X0146093Y0236464D01*
X0146088Y0236403D01*
X0146079Y0236344D01*
X0146066Y0236285D01*
X0146050Y0236226D01*
X0146030Y0236169D01*
X0146007Y0236114D01*
X0145980Y0236059D01*
X0145951Y0236007D01*
X0145918Y0235956D01*
X0145882Y0235907D01*
X0145844Y0235861D01*
X0145802Y0235817D01*
X0145758Y0235775D01*
X0145712Y0235737D01*
X0145663Y0235701D01*
X0145612Y0235668D01*
X0145560Y0235639D01*
X0145505Y0235612D01*
X0145450Y0235589D01*
X0145393Y0235569D01*
X0145334Y0235553D01*
X0145275Y0235540D01*
X0145216Y0235531D01*
X0145155Y0235526D01*
X0145095Y0235524D01*
X0140095Y0235524D02*
X0140035Y0235526D01*
X0139974Y0235531D01*
X0139915Y0235540D01*
X0139856Y0235553D01*
X0139797Y0235569D01*
X0139740Y0235589D01*
X0139685Y0235612D01*
X0139630Y0235639D01*
X0139578Y0235668D01*
X0139527Y0235701D01*
X0139478Y0235737D01*
X0139432Y0235775D01*
X0139388Y0235817D01*
X0139346Y0235861D01*
X0139308Y0235907D01*
X0139272Y0235956D01*
X0139239Y0236007D01*
X0139210Y0236059D01*
X0139183Y0236114D01*
X0139160Y0236169D01*
X0139140Y0236226D01*
X0139124Y0236285D01*
X0139111Y0236344D01*
X0139102Y0236403D01*
X0139097Y0236464D01*
X0139095Y0236524D01*
X0166095Y0207524D02*
X0173595Y0207524D01*
X0173597Y0207398D01*
X0173603Y0207273D01*
X0173613Y0207148D01*
X0173627Y0207023D01*
X0173644Y0206898D01*
X0173666Y0206774D01*
X0173691Y0206651D01*
X0173721Y0206529D01*
X0173754Y0206408D01*
X0173791Y0206288D01*
X0173831Y0206169D01*
X0173876Y0206052D01*
X0173924Y0205935D01*
X0173976Y0205821D01*
X0174031Y0205708D01*
X0174090Y0205597D01*
X0174152Y0205488D01*
X0174218Y0205381D01*
X0174287Y0205276D01*
X0174359Y0205173D01*
X0174434Y0205072D01*
X0174513Y0204974D01*
X0174595Y0204879D01*
X0174679Y0204786D01*
X0174767Y0204696D01*
X0174857Y0204608D01*
X0174950Y0204524D01*
X0175045Y0204442D01*
X0175143Y0204363D01*
X0175244Y0204288D01*
X0175347Y0204216D01*
X0175452Y0204147D01*
X0175559Y0204081D01*
X0175668Y0204019D01*
X0175779Y0203960D01*
X0175892Y0203905D01*
X0176006Y0203853D01*
X0176123Y0203805D01*
X0176240Y0203760D01*
X0176359Y0203720D01*
X0176479Y0203683D01*
X0176600Y0203650D01*
X0176722Y0203620D01*
X0176845Y0203595D01*
X0176969Y0203573D01*
X0177094Y0203556D01*
X0177219Y0203542D01*
X0177344Y0203532D01*
X0177469Y0203526D01*
X0177595Y0203524D01*
X0177721Y0203526D01*
X0177846Y0203532D01*
X0177971Y0203542D01*
X0178096Y0203556D01*
X0178221Y0203573D01*
X0178345Y0203595D01*
X0178468Y0203620D01*
X0178590Y0203650D01*
X0178711Y0203683D01*
X0178831Y0203720D01*
X0178950Y0203760D01*
X0179067Y0203805D01*
X0179184Y0203853D01*
X0179298Y0203905D01*
X0179411Y0203960D01*
X0179522Y0204019D01*
X0179631Y0204081D01*
X0179738Y0204147D01*
X0179843Y0204216D01*
X0179946Y0204288D01*
X0180047Y0204363D01*
X0180145Y0204442D01*
X0180240Y0204524D01*
X0180333Y0204608D01*
X0180423Y0204696D01*
X0180511Y0204786D01*
X0180595Y0204879D01*
X0180677Y0204974D01*
X0180756Y0205072D01*
X0180831Y0205173D01*
X0180903Y0205276D01*
X0180972Y0205381D01*
X0181038Y0205488D01*
X0181100Y0205597D01*
X0181159Y0205708D01*
X0181214Y0205821D01*
X0181266Y0205935D01*
X0181314Y0206052D01*
X0181359Y0206169D01*
X0181399Y0206288D01*
X0181436Y0206408D01*
X0181469Y0206529D01*
X0181499Y0206651D01*
X0181524Y0206774D01*
X0181546Y0206898D01*
X0181563Y0207023D01*
X0181577Y0207148D01*
X0181587Y0207273D01*
X0181593Y0207398D01*
X0181595Y0207524D01*
X0189095Y0207524D01*
X0189095Y0137524D01*
X0166095Y0137524D01*
X0166095Y0207524D01*
X0176595Y0219024D02*
X0177595Y0219024D01*
X0178095Y0219524D01*
X0187095Y0219524D01*
X0187595Y0219024D01*
X0188595Y0219024D01*
X0188655Y0219026D01*
X0188716Y0219031D01*
X0188775Y0219040D01*
X0188834Y0219053D01*
X0188893Y0219069D01*
X0188950Y0219089D01*
X0189005Y0219112D01*
X0189060Y0219139D01*
X0189112Y0219168D01*
X0189163Y0219201D01*
X0189212Y0219237D01*
X0189258Y0219275D01*
X0189302Y0219317D01*
X0189344Y0219361D01*
X0189382Y0219407D01*
X0189418Y0219456D01*
X0189451Y0219507D01*
X0189480Y0219559D01*
X0189507Y0219614D01*
X0189530Y0219669D01*
X0189550Y0219726D01*
X0189566Y0219785D01*
X0189579Y0219844D01*
X0189588Y0219903D01*
X0189593Y0219964D01*
X0189595Y0220024D01*
X0189595Y0225024D02*
X0189593Y0225084D01*
X0189588Y0225145D01*
X0189579Y0225204D01*
X0189566Y0225263D01*
X0189550Y0225322D01*
X0189530Y0225379D01*
X0189507Y0225434D01*
X0189480Y0225489D01*
X0189451Y0225541D01*
X0189418Y0225592D01*
X0189382Y0225641D01*
X0189344Y0225687D01*
X0189302Y0225731D01*
X0189258Y0225773D01*
X0189212Y0225811D01*
X0189163Y0225847D01*
X0189112Y0225880D01*
X0189060Y0225909D01*
X0189005Y0225936D01*
X0188950Y0225959D01*
X0188893Y0225979D01*
X0188834Y0225995D01*
X0188775Y0226008D01*
X0188716Y0226017D01*
X0188655Y0226022D01*
X0188595Y0226024D01*
X0187595Y0226024D01*
X0187095Y0225524D01*
X0178095Y0225524D01*
X0177595Y0226024D01*
X0176595Y0226024D01*
X0176535Y0226022D01*
X0176474Y0226017D01*
X0176415Y0226008D01*
X0176356Y0225995D01*
X0176297Y0225979D01*
X0176240Y0225959D01*
X0176185Y0225936D01*
X0176130Y0225909D01*
X0176078Y0225880D01*
X0176027Y0225847D01*
X0175978Y0225811D01*
X0175932Y0225773D01*
X0175888Y0225731D01*
X0175846Y0225687D01*
X0175808Y0225641D01*
X0175772Y0225592D01*
X0175739Y0225541D01*
X0175710Y0225489D01*
X0175683Y0225434D01*
X0175660Y0225379D01*
X0175640Y0225322D01*
X0175624Y0225263D01*
X0175611Y0225204D01*
X0175602Y0225145D01*
X0175597Y0225084D01*
X0175595Y0225024D01*
X0176595Y0229024D02*
X0177595Y0229024D01*
X0178095Y0229524D01*
X0187095Y0229524D01*
X0187595Y0229024D01*
X0188595Y0229024D01*
X0188655Y0229026D01*
X0188716Y0229031D01*
X0188775Y0229040D01*
X0188834Y0229053D01*
X0188893Y0229069D01*
X0188950Y0229089D01*
X0189005Y0229112D01*
X0189060Y0229139D01*
X0189112Y0229168D01*
X0189163Y0229201D01*
X0189212Y0229237D01*
X0189258Y0229275D01*
X0189302Y0229317D01*
X0189344Y0229361D01*
X0189382Y0229407D01*
X0189418Y0229456D01*
X0189451Y0229507D01*
X0189480Y0229559D01*
X0189507Y0229614D01*
X0189530Y0229669D01*
X0189550Y0229726D01*
X0189566Y0229785D01*
X0189579Y0229844D01*
X0189588Y0229903D01*
X0189593Y0229964D01*
X0189595Y0230024D01*
X0189595Y0235024D02*
X0189593Y0235084D01*
X0189588Y0235145D01*
X0189579Y0235204D01*
X0189566Y0235263D01*
X0189550Y0235322D01*
X0189530Y0235379D01*
X0189507Y0235434D01*
X0189480Y0235489D01*
X0189451Y0235541D01*
X0189418Y0235592D01*
X0189382Y0235641D01*
X0189344Y0235687D01*
X0189302Y0235731D01*
X0189258Y0235773D01*
X0189212Y0235811D01*
X0189163Y0235847D01*
X0189112Y0235880D01*
X0189060Y0235909D01*
X0189005Y0235936D01*
X0188950Y0235959D01*
X0188893Y0235979D01*
X0188834Y0235995D01*
X0188775Y0236008D01*
X0188716Y0236017D01*
X0188655Y0236022D01*
X0188595Y0236024D01*
X0187595Y0236024D01*
X0187095Y0235524D01*
X0178095Y0235524D01*
X0177595Y0236024D01*
X0176595Y0236024D01*
X0176535Y0236022D01*
X0176474Y0236017D01*
X0176415Y0236008D01*
X0176356Y0235995D01*
X0176297Y0235979D01*
X0176240Y0235959D01*
X0176185Y0235936D01*
X0176130Y0235909D01*
X0176078Y0235880D01*
X0176027Y0235847D01*
X0175978Y0235811D01*
X0175932Y0235773D01*
X0175888Y0235731D01*
X0175846Y0235687D01*
X0175808Y0235641D01*
X0175772Y0235592D01*
X0175739Y0235541D01*
X0175710Y0235489D01*
X0175683Y0235434D01*
X0175660Y0235379D01*
X0175640Y0235322D01*
X0175624Y0235263D01*
X0175611Y0235204D01*
X0175602Y0235145D01*
X0175597Y0235084D01*
X0175595Y0235024D01*
X0175595Y0230024D02*
X0175597Y0229964D01*
X0175602Y0229903D01*
X0175611Y0229844D01*
X0175624Y0229785D01*
X0175640Y0229726D01*
X0175660Y0229669D01*
X0175683Y0229614D01*
X0175710Y0229559D01*
X0175739Y0229507D01*
X0175772Y0229456D01*
X0175808Y0229407D01*
X0175846Y0229361D01*
X0175888Y0229317D01*
X0175932Y0229275D01*
X0175978Y0229237D01*
X0176027Y0229201D01*
X0176078Y0229168D01*
X0176130Y0229139D01*
X0176185Y0229112D01*
X0176240Y0229089D01*
X0176297Y0229069D01*
X0176356Y0229053D01*
X0176415Y0229040D01*
X0176474Y0229031D01*
X0176535Y0229026D01*
X0176595Y0229024D01*
X0175595Y0220024D02*
X0175597Y0219964D01*
X0175602Y0219903D01*
X0175611Y0219844D01*
X0175624Y0219785D01*
X0175640Y0219726D01*
X0175660Y0219669D01*
X0175683Y0219614D01*
X0175710Y0219559D01*
X0175739Y0219507D01*
X0175772Y0219456D01*
X0175808Y0219407D01*
X0175846Y0219361D01*
X0175888Y0219317D01*
X0175932Y0219275D01*
X0175978Y0219237D01*
X0176027Y0219201D01*
X0176078Y0219168D01*
X0176130Y0219139D01*
X0176185Y0219112D01*
X0176240Y0219089D01*
X0176297Y0219069D01*
X0176356Y0219053D01*
X0176415Y0219040D01*
X0176474Y0219031D01*
X0176535Y0219026D01*
X0176595Y0219024D01*
X0204095Y0218524D02*
X0204095Y0217524D01*
X0204595Y0217024D01*
X0204595Y0208024D01*
X0204095Y0207524D01*
X0204095Y0206524D01*
X0204097Y0206464D01*
X0204102Y0206403D01*
X0204111Y0206344D01*
X0204124Y0206285D01*
X0204140Y0206226D01*
X0204160Y0206169D01*
X0204183Y0206114D01*
X0204210Y0206059D01*
X0204239Y0206007D01*
X0204272Y0205956D01*
X0204308Y0205907D01*
X0204346Y0205861D01*
X0204388Y0205817D01*
X0204432Y0205775D01*
X0204478Y0205737D01*
X0204527Y0205701D01*
X0204578Y0205668D01*
X0204630Y0205639D01*
X0204685Y0205612D01*
X0204740Y0205589D01*
X0204797Y0205569D01*
X0204856Y0205553D01*
X0204915Y0205540D01*
X0204974Y0205531D01*
X0205035Y0205526D01*
X0205095Y0205524D01*
X0210095Y0205524D02*
X0210155Y0205526D01*
X0210216Y0205531D01*
X0210275Y0205540D01*
X0210334Y0205553D01*
X0210393Y0205569D01*
X0210450Y0205589D01*
X0210505Y0205612D01*
X0210560Y0205639D01*
X0210612Y0205668D01*
X0210663Y0205701D01*
X0210712Y0205737D01*
X0210758Y0205775D01*
X0210802Y0205817D01*
X0210844Y0205861D01*
X0210882Y0205907D01*
X0210918Y0205956D01*
X0210951Y0206007D01*
X0210980Y0206059D01*
X0211007Y0206114D01*
X0211030Y0206169D01*
X0211050Y0206226D01*
X0211066Y0206285D01*
X0211079Y0206344D01*
X0211088Y0206403D01*
X0211093Y0206464D01*
X0211095Y0206524D01*
X0211095Y0207524D01*
X0210595Y0208024D01*
X0210595Y0217024D01*
X0211095Y0217524D01*
X0211095Y0218524D01*
X0211093Y0218584D01*
X0211088Y0218645D01*
X0211079Y0218704D01*
X0211066Y0218763D01*
X0211050Y0218822D01*
X0211030Y0218879D01*
X0211007Y0218934D01*
X0210980Y0218989D01*
X0210951Y0219041D01*
X0210918Y0219092D01*
X0210882Y0219141D01*
X0210844Y0219187D01*
X0210802Y0219231D01*
X0210758Y0219273D01*
X0210712Y0219311D01*
X0210663Y0219347D01*
X0210612Y0219380D01*
X0210560Y0219409D01*
X0210505Y0219436D01*
X0210450Y0219459D01*
X0210393Y0219479D01*
X0210334Y0219495D01*
X0210275Y0219508D01*
X0210216Y0219517D01*
X0210155Y0219522D01*
X0210095Y0219524D01*
X0205095Y0219524D02*
X0205035Y0219522D01*
X0204974Y0219517D01*
X0204915Y0219508D01*
X0204856Y0219495D01*
X0204797Y0219479D01*
X0204740Y0219459D01*
X0204685Y0219436D01*
X0204630Y0219409D01*
X0204578Y0219380D01*
X0204527Y0219347D01*
X0204478Y0219311D01*
X0204432Y0219273D01*
X0204388Y0219231D01*
X0204346Y0219187D01*
X0204308Y0219141D01*
X0204272Y0219092D01*
X0204239Y0219041D01*
X0204210Y0218989D01*
X0204183Y0218934D01*
X0204160Y0218879D01*
X0204140Y0218822D01*
X0204124Y0218763D01*
X0204111Y0218704D01*
X0204102Y0218645D01*
X0204097Y0218584D01*
X0204095Y0218524D01*
X0204095Y0236524D02*
X0204095Y0237524D01*
X0204595Y0238024D01*
X0204595Y0247024D01*
X0204095Y0247524D01*
X0204095Y0248524D01*
X0204097Y0248584D01*
X0204102Y0248645D01*
X0204111Y0248704D01*
X0204124Y0248763D01*
X0204140Y0248822D01*
X0204160Y0248879D01*
X0204183Y0248934D01*
X0204210Y0248989D01*
X0204239Y0249041D01*
X0204272Y0249092D01*
X0204308Y0249141D01*
X0204346Y0249187D01*
X0204388Y0249231D01*
X0204432Y0249273D01*
X0204478Y0249311D01*
X0204527Y0249347D01*
X0204578Y0249380D01*
X0204630Y0249409D01*
X0204685Y0249436D01*
X0204740Y0249459D01*
X0204797Y0249479D01*
X0204856Y0249495D01*
X0204915Y0249508D01*
X0204974Y0249517D01*
X0205035Y0249522D01*
X0205095Y0249524D01*
X0210095Y0249524D02*
X0210155Y0249522D01*
X0210216Y0249517D01*
X0210275Y0249508D01*
X0210334Y0249495D01*
X0210393Y0249479D01*
X0210450Y0249459D01*
X0210505Y0249436D01*
X0210560Y0249409D01*
X0210612Y0249380D01*
X0210663Y0249347D01*
X0210712Y0249311D01*
X0210758Y0249273D01*
X0210802Y0249231D01*
X0210844Y0249187D01*
X0210882Y0249141D01*
X0210918Y0249092D01*
X0210951Y0249041D01*
X0210980Y0248989D01*
X0211007Y0248934D01*
X0211030Y0248879D01*
X0211050Y0248822D01*
X0211066Y0248763D01*
X0211079Y0248704D01*
X0211088Y0248645D01*
X0211093Y0248584D01*
X0211095Y0248524D01*
X0211095Y0247524D01*
X0210595Y0247024D01*
X0210595Y0238024D01*
X0211095Y0237524D01*
X0211095Y0236524D01*
X0211093Y0236464D01*
X0211088Y0236403D01*
X0211079Y0236344D01*
X0211066Y0236285D01*
X0211050Y0236226D01*
X0211030Y0236169D01*
X0211007Y0236114D01*
X0210980Y0236059D01*
X0210951Y0236007D01*
X0210918Y0235956D01*
X0210882Y0235907D01*
X0210844Y0235861D01*
X0210802Y0235817D01*
X0210758Y0235775D01*
X0210712Y0235737D01*
X0210663Y0235701D01*
X0210612Y0235668D01*
X0210560Y0235639D01*
X0210505Y0235612D01*
X0210450Y0235589D01*
X0210393Y0235569D01*
X0210334Y0235553D01*
X0210275Y0235540D01*
X0210216Y0235531D01*
X0210155Y0235526D01*
X0210095Y0235524D01*
X0205095Y0235524D02*
X0205035Y0235526D01*
X0204974Y0235531D01*
X0204915Y0235540D01*
X0204856Y0235553D01*
X0204797Y0235569D01*
X0204740Y0235589D01*
X0204685Y0235612D01*
X0204630Y0235639D01*
X0204578Y0235668D01*
X0204527Y0235701D01*
X0204478Y0235737D01*
X0204432Y0235775D01*
X0204388Y0235817D01*
X0204346Y0235861D01*
X0204308Y0235907D01*
X0204272Y0235956D01*
X0204239Y0236007D01*
X0204210Y0236059D01*
X0204183Y0236114D01*
X0204160Y0236169D01*
X0204140Y0236226D01*
X0204124Y0236285D01*
X0204111Y0236344D01*
X0204102Y0236403D01*
X0204097Y0236464D01*
X0204095Y0236524D01*
X0205095Y0262524D02*
X0202595Y0265024D01*
X0200095Y0262524D01*
X0195095Y0262524D01*
X0192595Y0265024D01*
X0190095Y0262524D01*
X0185095Y0262524D01*
X0182595Y0265024D01*
X0180095Y0262524D01*
X0175095Y0262524D01*
X0172595Y0265024D01*
X0172595Y0280024D01*
X0175095Y0282524D01*
X0180095Y0282524D01*
X0182595Y0280024D01*
X0185095Y0282524D01*
X0190095Y0282524D01*
X0192595Y0280024D01*
X0195095Y0282524D01*
X0200095Y0282524D01*
X0202595Y0280024D01*
X0205095Y0282524D01*
X0210095Y0282524D01*
X0212595Y0280024D01*
X0212595Y0265024D01*
X0210095Y0262524D01*
X0205095Y0262524D01*
X0227442Y0262752D02*
X0230845Y0262752D01*
X0230845Y0262185D02*
X0230845Y0263319D01*
X0230845Y0264640D02*
X0228577Y0264640D01*
X0228577Y0266342D01*
X0229144Y0266909D01*
X0230845Y0266909D01*
X0233762Y0267525D02*
X0236031Y0267525D01*
X0235463Y0265824D02*
X0235463Y0269227D01*
X0233762Y0267525D01*
X0227442Y0263319D02*
X0227442Y0262185D01*
X0228577Y0257087D02*
X0228577Y0255386D01*
X0229144Y0254819D01*
X0230278Y0254819D01*
X0230845Y0255386D01*
X0230845Y0257087D01*
X0231412Y0257087D02*
X0228577Y0257087D01*
X0229144Y0253404D02*
X0228577Y0252837D01*
X0228577Y0251703D01*
X0229144Y0251136D01*
X0230278Y0251136D01*
X0230845Y0251703D01*
X0230845Y0252837D01*
X0230278Y0253404D01*
X0229144Y0253404D01*
X0231979Y0255953D02*
X0231979Y0256520D01*
X0231412Y0257087D01*
X0233762Y0256391D02*
X0234329Y0255824D01*
X0235463Y0255824D01*
X0236031Y0256391D01*
X0236031Y0256958D01*
X0235463Y0257525D01*
X0234896Y0257525D01*
X0235463Y0257525D02*
X0236031Y0258092D01*
X0236031Y0258659D01*
X0235463Y0259227D01*
X0234329Y0259227D01*
X0233762Y0258659D01*
X0230845Y0249814D02*
X0230845Y0248680D01*
X0230845Y0249247D02*
X0227442Y0249247D01*
X0227442Y0248680D01*
X0229144Y0247266D02*
X0228577Y0246698D01*
X0228577Y0245564D01*
X0229711Y0245564D02*
X0229711Y0247266D01*
X0229144Y0247266D02*
X0230845Y0247266D01*
X0230845Y0245564D01*
X0230278Y0244997D01*
X0229711Y0245564D01*
X0229144Y0243582D02*
X0228577Y0243015D01*
X0228577Y0241314D01*
X0230845Y0241314D01*
X0230845Y0239899D02*
X0228577Y0239899D01*
X0227442Y0238765D01*
X0228577Y0237631D01*
X0230845Y0237631D01*
X0229144Y0237631D02*
X0229144Y0239899D01*
X0229144Y0243582D02*
X0230845Y0243582D01*
X0233762Y0245824D02*
X0236031Y0248092D01*
X0236031Y0248659D01*
X0235463Y0249227D01*
X0234329Y0249227D01*
X0233762Y0248659D01*
X0233762Y0245824D02*
X0236031Y0245824D01*
X0234896Y0239227D02*
X0233762Y0238092D01*
X0234896Y0239227D02*
X0234896Y0235824D01*
X0233762Y0235824D02*
X0236031Y0235824D01*
X0235463Y0229227D02*
X0236031Y0228659D01*
X0233762Y0226391D01*
X0234329Y0225824D01*
X0235463Y0225824D01*
X0236031Y0226391D01*
X0236031Y0228659D01*
X0235463Y0229227D02*
X0234329Y0229227D01*
X0233762Y0228659D01*
X0233762Y0226391D01*
X0233762Y0209227D02*
X0236031Y0205824D01*
X0236031Y0209227D01*
X0233762Y0209227D02*
X0233762Y0205824D01*
X0232441Y0205824D02*
X0231307Y0205824D01*
X0231874Y0205824D02*
X0231874Y0209227D01*
X0231307Y0209227D02*
X0232441Y0209227D01*
X0229892Y0209227D02*
X0229892Y0206958D01*
X0228758Y0205824D01*
X0227623Y0206958D01*
X0227623Y0209227D01*
X0228097Y0199227D02*
X0226963Y0199227D01*
X0226396Y0198659D01*
X0226396Y0196391D01*
X0226963Y0195824D01*
X0228097Y0195824D01*
X0228664Y0196391D01*
X0228664Y0197525D01*
X0227530Y0197525D01*
X0228664Y0198659D02*
X0228097Y0199227D01*
X0230079Y0199227D02*
X0230079Y0195824D01*
X0232347Y0195824D02*
X0230079Y0199227D01*
X0232347Y0199227D02*
X0232347Y0195824D01*
X0233762Y0195824D02*
X0235463Y0195824D01*
X0236031Y0196391D01*
X0236031Y0198659D01*
X0235463Y0199227D01*
X0233762Y0199227D01*
X0233762Y0195824D01*
X0233762Y0189227D02*
X0235463Y0189227D01*
X0236031Y0188659D01*
X0236031Y0186391D01*
X0235463Y0185824D01*
X0233762Y0185824D01*
X0233762Y0189227D01*
X0232347Y0189227D02*
X0232347Y0185824D01*
X0230079Y0189227D01*
X0230079Y0185824D01*
X0228664Y0186391D02*
X0228664Y0187525D01*
X0227530Y0187525D01*
X0226396Y0186391D02*
X0226963Y0185824D01*
X0228097Y0185824D01*
X0228664Y0186391D01*
X0226396Y0186391D02*
X0226396Y0188659D01*
X0226963Y0189227D01*
X0228097Y0189227D01*
X0228664Y0188659D01*
X0230079Y0179227D02*
X0230079Y0177525D01*
X0231213Y0178092D01*
X0231780Y0178092D01*
X0232347Y0177525D01*
X0232347Y0176391D01*
X0231780Y0175824D01*
X0230646Y0175824D01*
X0230079Y0176391D01*
X0228664Y0177525D02*
X0226396Y0177525D01*
X0227530Y0178659D02*
X0227530Y0176391D01*
X0230079Y0179227D02*
X0232347Y0179227D01*
X0233762Y0179227D02*
X0233762Y0176958D01*
X0234896Y0175824D01*
X0236031Y0176958D01*
X0236031Y0179227D01*
X0236031Y0169227D02*
X0236031Y0166958D01*
X0234896Y0165824D01*
X0233762Y0166958D01*
X0233762Y0169227D01*
X0232347Y0168659D02*
X0232347Y0168092D01*
X0231780Y0167525D01*
X0232347Y0166958D01*
X0232347Y0166391D01*
X0231780Y0165824D01*
X0230646Y0165824D01*
X0230079Y0166391D01*
X0228804Y0166391D02*
X0228804Y0165824D01*
X0228237Y0165824D01*
X0228237Y0166391D01*
X0228804Y0166391D01*
X0226823Y0166391D02*
X0226256Y0165824D01*
X0225121Y0165824D01*
X0224554Y0166391D01*
X0225688Y0167525D02*
X0226256Y0167525D01*
X0226823Y0166958D01*
X0226823Y0166391D01*
X0226256Y0167525D02*
X0226823Y0168092D01*
X0226823Y0168659D01*
X0226256Y0169227D01*
X0225121Y0169227D01*
X0224554Y0168659D01*
X0223140Y0167525D02*
X0220871Y0167525D01*
X0222005Y0168659D02*
X0222005Y0166391D01*
X0226396Y0159227D02*
X0228097Y0159227D01*
X0228664Y0158659D01*
X0228664Y0157525D01*
X0228097Y0156958D01*
X0226396Y0156958D01*
X0227530Y0156958D02*
X0228664Y0155824D01*
X0230079Y0156391D02*
X0230646Y0155824D01*
X0231780Y0155824D01*
X0232347Y0156391D01*
X0232347Y0156958D01*
X0231780Y0157525D01*
X0230646Y0157525D01*
X0230079Y0158092D01*
X0230079Y0158659D01*
X0230646Y0159227D01*
X0231780Y0159227D01*
X0232347Y0158659D01*
X0233762Y0159227D02*
X0236031Y0159227D01*
X0234896Y0159227D02*
X0234896Y0155824D01*
X0233762Y0149227D02*
X0236031Y0149227D01*
X0234896Y0147525D02*
X0233762Y0147525D01*
X0233762Y0145824D02*
X0233762Y0149227D01*
X0232347Y0149227D02*
X0230079Y0149227D01*
X0230079Y0145824D01*
X0232347Y0145824D01*
X0231213Y0147525D02*
X0230079Y0147525D01*
X0228664Y0147525D02*
X0228097Y0146958D01*
X0226396Y0146958D01*
X0227530Y0146958D02*
X0228664Y0145824D01*
X0228664Y0147525D02*
X0228664Y0148659D01*
X0228097Y0149227D01*
X0226396Y0149227D01*
X0226396Y0145824D01*
X0224981Y0146391D02*
X0224981Y0148659D01*
X0224414Y0149227D01*
X0223280Y0149227D01*
X0222713Y0148659D01*
X0222713Y0146391D01*
X0223280Y0145824D01*
X0224414Y0145824D01*
X0224981Y0146391D01*
X0221391Y0145824D02*
X0220257Y0145824D01*
X0220824Y0145824D02*
X0220824Y0149227D01*
X0220257Y0149227D02*
X0221391Y0149227D01*
X0226396Y0155824D02*
X0226396Y0159227D01*
X0231213Y0167525D02*
X0231780Y0167525D01*
X0232347Y0168659D02*
X0231780Y0169227D01*
X0230646Y0169227D01*
X0230079Y0168659D01*
X0212095Y0171024D02*
X0212095Y0184024D01*
X0212093Y0184111D01*
X0212087Y0184198D01*
X0212078Y0184285D01*
X0212065Y0184371D01*
X0212048Y0184457D01*
X0212027Y0184542D01*
X0212002Y0184625D01*
X0211974Y0184708D01*
X0211943Y0184789D01*
X0211908Y0184869D01*
X0211869Y0184947D01*
X0211827Y0185024D01*
X0211782Y0185099D01*
X0211733Y0185171D01*
X0211682Y0185242D01*
X0211627Y0185310D01*
X0211570Y0185375D01*
X0211509Y0185438D01*
X0211446Y0185499D01*
X0211381Y0185556D01*
X0211313Y0185611D01*
X0211242Y0185662D01*
X0211170Y0185711D01*
X0211095Y0185756D01*
X0211018Y0185798D01*
X0210940Y0185837D01*
X0210860Y0185872D01*
X0210779Y0185903D01*
X0210696Y0185931D01*
X0210613Y0185956D01*
X0210528Y0185977D01*
X0210442Y0185994D01*
X0210356Y0186007D01*
X0210269Y0186016D01*
X0210182Y0186022D01*
X0210095Y0186024D01*
X0205095Y0186024D01*
X0205008Y0186022D01*
X0204921Y0186016D01*
X0204834Y0186007D01*
X0204748Y0185994D01*
X0204662Y0185977D01*
X0204577Y0185956D01*
X0204494Y0185931D01*
X0204411Y0185903D01*
X0204330Y0185872D01*
X0204250Y0185837D01*
X0204172Y0185798D01*
X0204095Y0185756D01*
X0204020Y0185711D01*
X0203948Y0185662D01*
X0203877Y0185611D01*
X0203809Y0185556D01*
X0203744Y0185499D01*
X0203681Y0185438D01*
X0203620Y0185375D01*
X0203563Y0185310D01*
X0203508Y0185242D01*
X0203457Y0185171D01*
X0203408Y0185099D01*
X0203363Y0185024D01*
X0203321Y0184947D01*
X0203282Y0184869D01*
X0203247Y0184789D01*
X0203216Y0184708D01*
X0203188Y0184625D01*
X0203163Y0184542D01*
X0203142Y0184457D01*
X0203125Y0184371D01*
X0203112Y0184285D01*
X0203103Y0184198D01*
X0203097Y0184111D01*
X0203095Y0184024D01*
X0203095Y0171024D01*
X0203097Y0170937D01*
X0203103Y0170850D01*
X0203112Y0170763D01*
X0203125Y0170677D01*
X0203142Y0170591D01*
X0203163Y0170506D01*
X0203188Y0170423D01*
X0203216Y0170340D01*
X0203247Y0170259D01*
X0203282Y0170179D01*
X0203321Y0170101D01*
X0203363Y0170024D01*
X0203408Y0169949D01*
X0203457Y0169877D01*
X0203508Y0169806D01*
X0203563Y0169738D01*
X0203620Y0169673D01*
X0203681Y0169610D01*
X0203744Y0169549D01*
X0203809Y0169492D01*
X0203877Y0169437D01*
X0203948Y0169386D01*
X0204020Y0169337D01*
X0204095Y0169292D01*
X0204172Y0169250D01*
X0204250Y0169211D01*
X0204330Y0169176D01*
X0204411Y0169145D01*
X0204494Y0169117D01*
X0204577Y0169092D01*
X0204662Y0169071D01*
X0204748Y0169054D01*
X0204834Y0169041D01*
X0204921Y0169032D01*
X0205008Y0169026D01*
X0205095Y0169024D01*
X0210095Y0169024D01*
X0210182Y0169026D01*
X0210269Y0169032D01*
X0210356Y0169041D01*
X0210442Y0169054D01*
X0210528Y0169071D01*
X0210613Y0169092D01*
X0210696Y0169117D01*
X0210779Y0169145D01*
X0210860Y0169176D01*
X0210940Y0169211D01*
X0211018Y0169250D01*
X0211095Y0169292D01*
X0211170Y0169337D01*
X0211242Y0169386D01*
X0211313Y0169437D01*
X0211381Y0169492D01*
X0211446Y0169549D01*
X0211509Y0169610D01*
X0211570Y0169673D01*
X0211627Y0169738D01*
X0211682Y0169806D01*
X0211733Y0169877D01*
X0211782Y0169949D01*
X0211827Y0170024D01*
X0211869Y0170101D01*
X0211908Y0170179D01*
X0211943Y0170259D01*
X0211974Y0170340D01*
X0212002Y0170423D01*
X0212027Y0170506D01*
X0212048Y0170591D01*
X0212065Y0170677D01*
X0212078Y0170763D01*
X0212087Y0170850D01*
X0212093Y0170937D01*
X0212095Y0171024D01*
X0175595Y0121524D02*
X0159595Y0121524D01*
X0159535Y0121522D01*
X0159474Y0121517D01*
X0159415Y0121508D01*
X0159356Y0121495D01*
X0159297Y0121479D01*
X0159240Y0121459D01*
X0159185Y0121436D01*
X0159130Y0121409D01*
X0159078Y0121380D01*
X0159027Y0121347D01*
X0158978Y0121311D01*
X0158932Y0121273D01*
X0158888Y0121231D01*
X0158846Y0121187D01*
X0158808Y0121141D01*
X0158772Y0121092D01*
X0158739Y0121041D01*
X0158710Y0120989D01*
X0158683Y0120934D01*
X0158660Y0120879D01*
X0158640Y0120822D01*
X0158624Y0120763D01*
X0158611Y0120704D01*
X0158602Y0120645D01*
X0158597Y0120584D01*
X0158595Y0120524D01*
X0158595Y0114524D01*
X0158597Y0114464D01*
X0158602Y0114403D01*
X0158611Y0114344D01*
X0158624Y0114285D01*
X0158640Y0114226D01*
X0158660Y0114169D01*
X0158683Y0114114D01*
X0158710Y0114059D01*
X0158739Y0114007D01*
X0158772Y0113956D01*
X0158808Y0113907D01*
X0158846Y0113861D01*
X0158888Y0113817D01*
X0158932Y0113775D01*
X0158978Y0113737D01*
X0159027Y0113701D01*
X0159078Y0113668D01*
X0159130Y0113639D01*
X0159185Y0113612D01*
X0159240Y0113589D01*
X0159297Y0113569D01*
X0159356Y0113553D01*
X0159415Y0113540D01*
X0159474Y0113531D01*
X0159535Y0113526D01*
X0159595Y0113524D01*
X0175595Y0113524D01*
X0175655Y0113526D01*
X0175716Y0113531D01*
X0175775Y0113540D01*
X0175834Y0113553D01*
X0175893Y0113569D01*
X0175950Y0113589D01*
X0176005Y0113612D01*
X0176060Y0113639D01*
X0176112Y0113668D01*
X0176163Y0113701D01*
X0176212Y0113737D01*
X0176258Y0113775D01*
X0176302Y0113817D01*
X0176344Y0113861D01*
X0176382Y0113907D01*
X0176418Y0113956D01*
X0176451Y0114007D01*
X0176480Y0114059D01*
X0176507Y0114114D01*
X0176530Y0114169D01*
X0176550Y0114226D01*
X0176566Y0114285D01*
X0176579Y0114344D01*
X0176588Y0114403D01*
X0176593Y0114464D01*
X0176595Y0114524D01*
X0176595Y0120524D01*
X0176593Y0120584D01*
X0176588Y0120645D01*
X0176579Y0120704D01*
X0176566Y0120763D01*
X0176550Y0120822D01*
X0176530Y0120879D01*
X0176507Y0120934D01*
X0176480Y0120989D01*
X0176451Y0121041D01*
X0176418Y0121092D01*
X0176382Y0121141D01*
X0176344Y0121187D01*
X0176302Y0121231D01*
X0176258Y0121273D01*
X0176212Y0121311D01*
X0176163Y0121347D01*
X0176112Y0121380D01*
X0176060Y0121409D01*
X0176005Y0121436D01*
X0175950Y0121459D01*
X0175893Y0121479D01*
X0175834Y0121495D01*
X0175775Y0121508D01*
X0175716Y0121517D01*
X0175655Y0121522D01*
X0175595Y0121524D01*
X0173595Y0117524D02*
X0167595Y0117524D01*
X0167595Y0115024D01*
X0167595Y0117524D02*
X0165095Y0117524D01*
X0167595Y0117524D02*
X0167595Y0120024D01*
X0167595Y0117524D02*
X0171595Y0120024D01*
X0171595Y0115024D01*
X0167595Y0117524D01*
X0081095Y0166524D02*
X0081095Y0167524D01*
X0080595Y0168024D01*
X0080595Y0177024D01*
X0081095Y0177524D01*
X0081095Y0178524D01*
X0081093Y0178584D01*
X0081088Y0178645D01*
X0081079Y0178704D01*
X0081066Y0178763D01*
X0081050Y0178822D01*
X0081030Y0178879D01*
X0081007Y0178934D01*
X0080980Y0178989D01*
X0080951Y0179041D01*
X0080918Y0179092D01*
X0080882Y0179141D01*
X0080844Y0179187D01*
X0080802Y0179231D01*
X0080758Y0179273D01*
X0080712Y0179311D01*
X0080663Y0179347D01*
X0080612Y0179380D01*
X0080560Y0179409D01*
X0080505Y0179436D01*
X0080450Y0179459D01*
X0080393Y0179479D01*
X0080334Y0179495D01*
X0080275Y0179508D01*
X0080216Y0179517D01*
X0080155Y0179522D01*
X0080095Y0179524D01*
X0075095Y0179524D02*
X0075035Y0179522D01*
X0074974Y0179517D01*
X0074915Y0179508D01*
X0074856Y0179495D01*
X0074797Y0179479D01*
X0074740Y0179459D01*
X0074685Y0179436D01*
X0074630Y0179409D01*
X0074578Y0179380D01*
X0074527Y0179347D01*
X0074478Y0179311D01*
X0074432Y0179273D01*
X0074388Y0179231D01*
X0074346Y0179187D01*
X0074308Y0179141D01*
X0074272Y0179092D01*
X0074239Y0179041D01*
X0074210Y0178989D01*
X0074183Y0178934D01*
X0074160Y0178879D01*
X0074140Y0178822D01*
X0074124Y0178763D01*
X0074111Y0178704D01*
X0074102Y0178645D01*
X0074097Y0178584D01*
X0074095Y0178524D01*
X0074095Y0177524D01*
X0074595Y0177024D01*
X0074595Y0168024D01*
X0074095Y0167524D01*
X0074095Y0166524D01*
X0074097Y0166464D01*
X0074102Y0166403D01*
X0074111Y0166344D01*
X0074124Y0166285D01*
X0074140Y0166226D01*
X0074160Y0166169D01*
X0074183Y0166114D01*
X0074210Y0166059D01*
X0074239Y0166007D01*
X0074272Y0165956D01*
X0074308Y0165907D01*
X0074346Y0165861D01*
X0074388Y0165817D01*
X0074432Y0165775D01*
X0074478Y0165737D01*
X0074527Y0165701D01*
X0074578Y0165668D01*
X0074630Y0165639D01*
X0074685Y0165612D01*
X0074740Y0165589D01*
X0074797Y0165569D01*
X0074856Y0165553D01*
X0074915Y0165540D01*
X0074974Y0165531D01*
X0075035Y0165526D01*
X0075095Y0165524D01*
X0080095Y0165524D02*
X0080155Y0165526D01*
X0080216Y0165531D01*
X0080275Y0165540D01*
X0080334Y0165553D01*
X0080393Y0165569D01*
X0080450Y0165589D01*
X0080505Y0165612D01*
X0080560Y0165639D01*
X0080612Y0165668D01*
X0080663Y0165701D01*
X0080712Y0165737D01*
X0080758Y0165775D01*
X0080802Y0165817D01*
X0080844Y0165861D01*
X0080882Y0165907D01*
X0080918Y0165956D01*
X0080951Y0166007D01*
X0080980Y0166059D01*
X0081007Y0166114D01*
X0081030Y0166169D01*
X0081050Y0166226D01*
X0081066Y0166285D01*
X0081079Y0166344D01*
X0081088Y0166403D01*
X0081093Y0166464D01*
X0081095Y0166524D01*
X0067595Y0212524D02*
X0067598Y0212769D01*
X0067607Y0213015D01*
X0067622Y0213260D01*
X0067643Y0213504D01*
X0067670Y0213748D01*
X0067703Y0213991D01*
X0067742Y0214234D01*
X0067787Y0214475D01*
X0067838Y0214715D01*
X0067895Y0214954D01*
X0067957Y0215191D01*
X0068026Y0215427D01*
X0068100Y0215661D01*
X0068180Y0215893D01*
X0068265Y0216123D01*
X0068356Y0216351D01*
X0068453Y0216576D01*
X0068555Y0216800D01*
X0068663Y0217020D01*
X0068776Y0217238D01*
X0068894Y0217453D01*
X0069018Y0217665D01*
X0069146Y0217874D01*
X0069280Y0218080D01*
X0069419Y0218282D01*
X0069563Y0218481D01*
X0069712Y0218676D01*
X0069865Y0218868D01*
X0070023Y0219056D01*
X0070185Y0219240D01*
X0070353Y0219419D01*
X0070524Y0219595D01*
X0070700Y0219766D01*
X0070879Y0219934D01*
X0071063Y0220096D01*
X0071251Y0220254D01*
X0071443Y0220407D01*
X0071638Y0220556D01*
X0071837Y0220700D01*
X0072039Y0220839D01*
X0072245Y0220973D01*
X0072454Y0221101D01*
X0072666Y0221225D01*
X0072881Y0221343D01*
X0073099Y0221456D01*
X0073319Y0221564D01*
X0073543Y0221666D01*
X0073768Y0221763D01*
X0073996Y0221854D01*
X0074226Y0221939D01*
X0074458Y0222019D01*
X0074692Y0222093D01*
X0074928Y0222162D01*
X0075165Y0222224D01*
X0075404Y0222281D01*
X0075644Y0222332D01*
X0075885Y0222377D01*
X0076128Y0222416D01*
X0076371Y0222449D01*
X0076615Y0222476D01*
X0076859Y0222497D01*
X0077104Y0222512D01*
X0077350Y0222521D01*
X0077595Y0222524D01*
X0077840Y0222521D01*
X0078086Y0222512D01*
X0078331Y0222497D01*
X0078575Y0222476D01*
X0078819Y0222449D01*
X0079062Y0222416D01*
X0079305Y0222377D01*
X0079546Y0222332D01*
X0079786Y0222281D01*
X0080025Y0222224D01*
X0080262Y0222162D01*
X0080498Y0222093D01*
X0080732Y0222019D01*
X0080964Y0221939D01*
X0081194Y0221854D01*
X0081422Y0221763D01*
X0081647Y0221666D01*
X0081871Y0221564D01*
X0082091Y0221456D01*
X0082309Y0221343D01*
X0082524Y0221225D01*
X0082736Y0221101D01*
X0082945Y0220973D01*
X0083151Y0220839D01*
X0083353Y0220700D01*
X0083552Y0220556D01*
X0083747Y0220407D01*
X0083939Y0220254D01*
X0084127Y0220096D01*
X0084311Y0219934D01*
X0084490Y0219766D01*
X0084666Y0219595D01*
X0084837Y0219419D01*
X0085005Y0219240D01*
X0085167Y0219056D01*
X0085325Y0218868D01*
X0085478Y0218676D01*
X0085627Y0218481D01*
X0085771Y0218282D01*
X0085910Y0218080D01*
X0086044Y0217874D01*
X0086172Y0217665D01*
X0086296Y0217453D01*
X0086414Y0217238D01*
X0086527Y0217020D01*
X0086635Y0216800D01*
X0086737Y0216576D01*
X0086834Y0216351D01*
X0086925Y0216123D01*
X0087010Y0215893D01*
X0087090Y0215661D01*
X0087164Y0215427D01*
X0087233Y0215191D01*
X0087295Y0214954D01*
X0087352Y0214715D01*
X0087403Y0214475D01*
X0087448Y0214234D01*
X0087487Y0213991D01*
X0087520Y0213748D01*
X0087547Y0213504D01*
X0087568Y0213260D01*
X0087583Y0213015D01*
X0087592Y0212769D01*
X0087595Y0212524D01*
X0087592Y0212279D01*
X0087583Y0212033D01*
X0087568Y0211788D01*
X0087547Y0211544D01*
X0087520Y0211300D01*
X0087487Y0211057D01*
X0087448Y0210814D01*
X0087403Y0210573D01*
X0087352Y0210333D01*
X0087295Y0210094D01*
X0087233Y0209857D01*
X0087164Y0209621D01*
X0087090Y0209387D01*
X0087010Y0209155D01*
X0086925Y0208925D01*
X0086834Y0208697D01*
X0086737Y0208472D01*
X0086635Y0208248D01*
X0086527Y0208028D01*
X0086414Y0207810D01*
X0086296Y0207595D01*
X0086172Y0207383D01*
X0086044Y0207174D01*
X0085910Y0206968D01*
X0085771Y0206766D01*
X0085627Y0206567D01*
X0085478Y0206372D01*
X0085325Y0206180D01*
X0085167Y0205992D01*
X0085005Y0205808D01*
X0084837Y0205629D01*
X0084666Y0205453D01*
X0084490Y0205282D01*
X0084311Y0205114D01*
X0084127Y0204952D01*
X0083939Y0204794D01*
X0083747Y0204641D01*
X0083552Y0204492D01*
X0083353Y0204348D01*
X0083151Y0204209D01*
X0082945Y0204075D01*
X0082736Y0203947D01*
X0082524Y0203823D01*
X0082309Y0203705D01*
X0082091Y0203592D01*
X0081871Y0203484D01*
X0081647Y0203382D01*
X0081422Y0203285D01*
X0081194Y0203194D01*
X0080964Y0203109D01*
X0080732Y0203029D01*
X0080498Y0202955D01*
X0080262Y0202886D01*
X0080025Y0202824D01*
X0079786Y0202767D01*
X0079546Y0202716D01*
X0079305Y0202671D01*
X0079062Y0202632D01*
X0078819Y0202599D01*
X0078575Y0202572D01*
X0078331Y0202551D01*
X0078086Y0202536D01*
X0077840Y0202527D01*
X0077595Y0202524D01*
X0077350Y0202527D01*
X0077104Y0202536D01*
X0076859Y0202551D01*
X0076615Y0202572D01*
X0076371Y0202599D01*
X0076128Y0202632D01*
X0075885Y0202671D01*
X0075644Y0202716D01*
X0075404Y0202767D01*
X0075165Y0202824D01*
X0074928Y0202886D01*
X0074692Y0202955D01*
X0074458Y0203029D01*
X0074226Y0203109D01*
X0073996Y0203194D01*
X0073768Y0203285D01*
X0073543Y0203382D01*
X0073319Y0203484D01*
X0073099Y0203592D01*
X0072881Y0203705D01*
X0072666Y0203823D01*
X0072454Y0203947D01*
X0072245Y0204075D01*
X0072039Y0204209D01*
X0071837Y0204348D01*
X0071638Y0204492D01*
X0071443Y0204641D01*
X0071251Y0204794D01*
X0071063Y0204952D01*
X0070879Y0205114D01*
X0070700Y0205282D01*
X0070524Y0205453D01*
X0070353Y0205629D01*
X0070185Y0205808D01*
X0070023Y0205992D01*
X0069865Y0206180D01*
X0069712Y0206372D01*
X0069563Y0206567D01*
X0069419Y0206766D01*
X0069280Y0206968D01*
X0069146Y0207174D01*
X0069018Y0207383D01*
X0068894Y0207595D01*
X0068776Y0207810D01*
X0068663Y0208028D01*
X0068555Y0208248D01*
X0068453Y0208472D01*
X0068356Y0208697D01*
X0068265Y0208925D01*
X0068180Y0209155D01*
X0068100Y0209387D01*
X0068026Y0209621D01*
X0067957Y0209857D01*
X0067895Y0210094D01*
X0067838Y0210333D01*
X0067787Y0210573D01*
X0067742Y0210814D01*
X0067703Y0211057D01*
X0067670Y0211300D01*
X0067643Y0211544D01*
X0067622Y0211788D01*
X0067607Y0212033D01*
X0067598Y0212279D01*
X0067595Y0212524D01*
X0233762Y0276391D02*
X0234329Y0275824D01*
X0235463Y0275824D01*
X0236031Y0276391D01*
X0236031Y0277525D01*
X0235463Y0278092D01*
X0234896Y0278092D01*
X0233762Y0277525D01*
X0233762Y0279227D01*
X0236031Y0279227D01*
D12*
X0208244Y0284274D02*
X0205241Y0284274D01*
X0206742Y0284274D02*
X0206742Y0288777D01*
X0205241Y0287276D01*
X0194742Y0260777D02*
X0194742Y0256274D01*
X0193241Y0256274D02*
X0196244Y0256274D01*
X0193241Y0259276D02*
X0194742Y0260777D01*
X0191640Y0260777D02*
X0191640Y0257775D01*
X0190139Y0256274D01*
X0188637Y0257775D01*
X0188637Y0260777D01*
X0187036Y0260027D02*
X0186285Y0260777D01*
X0184784Y0260777D01*
X0184033Y0260027D01*
X0184033Y0259276D01*
X0184784Y0258526D01*
X0186285Y0258526D01*
X0187036Y0257775D01*
X0187036Y0257024D01*
X0186285Y0256274D01*
X0184784Y0256274D01*
X0184033Y0257024D01*
X0176244Y0257024D02*
X0175493Y0256274D01*
X0173992Y0256274D01*
X0173241Y0257024D01*
X0173241Y0257775D01*
X0173992Y0258526D01*
X0175493Y0258526D01*
X0176244Y0257775D01*
X0176244Y0257024D01*
X0175493Y0258526D02*
X0176244Y0259276D01*
X0176244Y0260027D01*
X0175493Y0260777D01*
X0173992Y0260777D01*
X0173241Y0260027D01*
X0173241Y0259276D01*
X0173992Y0258526D01*
X0133452Y0227027D02*
X0132701Y0227777D01*
X0131200Y0227777D01*
X0130449Y0227027D01*
X0128848Y0227027D02*
X0128097Y0227777D01*
X0126596Y0227777D01*
X0125845Y0227027D01*
X0125845Y0224024D01*
X0126596Y0223274D01*
X0128097Y0223274D01*
X0128848Y0224024D01*
X0130449Y0223274D02*
X0133452Y0226276D01*
X0133452Y0227027D01*
X0133452Y0223274D02*
X0130449Y0223274D01*
X0137893Y0180080D02*
X0137893Y0177078D01*
X0135641Y0179329D01*
X0140145Y0179329D01*
X0139395Y0174726D02*
X0135641Y0174726D01*
X0135641Y0175476D02*
X0135641Y0173975D01*
X0139395Y0174726D02*
X0140145Y0173975D01*
X0140145Y0173224D01*
X0139395Y0172474D01*
X0138795Y0141472D02*
X0139545Y0140722D01*
X0139545Y0139220D01*
X0138795Y0138470D01*
X0137293Y0139971D02*
X0137293Y0140722D01*
X0138044Y0141472D01*
X0138795Y0141472D01*
X0137293Y0140722D02*
X0136543Y0141472D01*
X0135792Y0141472D01*
X0135041Y0140722D01*
X0135041Y0139220D01*
X0135792Y0138470D01*
X0135041Y0136868D02*
X0135041Y0135367D01*
X0135041Y0136118D02*
X0138795Y0136118D01*
X0139545Y0135367D01*
X0139545Y0134616D01*
X0138795Y0133866D01*
X0159345Y0127277D02*
X0159345Y0122774D01*
X0161597Y0122774D01*
X0162348Y0123524D01*
X0162348Y0126527D01*
X0161597Y0127277D01*
X0159345Y0127277D01*
X0163949Y0125776D02*
X0165450Y0127277D01*
X0165450Y0122774D01*
X0163949Y0122774D02*
X0166952Y0122774D01*
X0180845Y0129274D02*
X0182346Y0129274D01*
X0181596Y0129274D02*
X0181596Y0133777D01*
X0182346Y0133777D02*
X0180845Y0133777D01*
X0183914Y0133027D02*
X0183914Y0130024D01*
X0184665Y0129274D01*
X0186166Y0129274D01*
X0186917Y0130024D01*
X0188518Y0129274D02*
X0191521Y0129274D01*
X0190020Y0129274D02*
X0190020Y0133777D01*
X0188518Y0132276D01*
X0186917Y0133027D02*
X0186166Y0133777D01*
X0184665Y0133777D01*
X0183914Y0133027D01*
X0202888Y0187774D02*
X0204389Y0187774D01*
X0205140Y0188524D01*
X0206741Y0187774D02*
X0209744Y0187774D01*
X0208242Y0187774D02*
X0208242Y0192277D01*
X0206741Y0190776D01*
X0205140Y0191527D02*
X0204389Y0192277D01*
X0202888Y0192277D01*
X0202137Y0191527D01*
X0202137Y0188524D01*
X0202888Y0187774D01*
X0090145Y0180080D02*
X0090145Y0177078D01*
X0087143Y0180080D01*
X0086392Y0180080D01*
X0085641Y0179329D01*
X0085641Y0177828D01*
X0086392Y0177078D01*
X0085641Y0175476D02*
X0085641Y0173975D01*
X0085641Y0174726D02*
X0089395Y0174726D01*
X0090145Y0173975D01*
X0090145Y0173224D01*
X0089395Y0172474D01*
X0089545Y0141472D02*
X0089545Y0138470D01*
X0089545Y0139971D02*
X0085041Y0139971D01*
X0086543Y0138470D01*
X0085041Y0136868D02*
X0085041Y0135367D01*
X0085041Y0136118D02*
X0088795Y0136118D01*
X0089545Y0135367D01*
X0089545Y0134616D01*
X0088795Y0133866D01*
D13*
X0085895Y0173441D02*
X0082392Y0173441D01*
X0082392Y0175193D01*
X0082976Y0175777D01*
X0084144Y0175777D01*
X0084727Y0175193D01*
X0084727Y0173441D01*
X0084727Y0174609D02*
X0085895Y0175777D01*
X0085311Y0177033D02*
X0085895Y0177616D01*
X0085895Y0178784D01*
X0085311Y0179368D01*
X0084727Y0179368D01*
X0084144Y0178784D01*
X0084144Y0177033D01*
X0085311Y0177033D01*
X0084144Y0177033D02*
X0082976Y0178200D01*
X0082392Y0179368D01*
X0104895Y0257324D02*
X0104895Y0260827D01*
X0106647Y0260827D01*
X0107230Y0260243D01*
X0107230Y0259075D01*
X0106647Y0258491D01*
X0104895Y0258491D01*
X0106063Y0258491D02*
X0107230Y0257324D01*
X0108486Y0257324D02*
X0108486Y0257907D01*
X0110822Y0260243D01*
X0110822Y0260827D01*
X0108486Y0260827D01*
X0147392Y0249368D02*
X0147392Y0247033D01*
X0149144Y0247033D01*
X0148560Y0248200D01*
X0148560Y0248784D01*
X0149144Y0249368D01*
X0150311Y0249368D01*
X0150895Y0248784D01*
X0150895Y0247616D01*
X0150311Y0247033D01*
X0150895Y0245777D02*
X0149727Y0244609D01*
X0149727Y0245193D02*
X0149727Y0243441D01*
X0150895Y0243441D02*
X0147392Y0243441D01*
X0147392Y0245193D01*
X0147976Y0245777D01*
X0149144Y0245777D01*
X0149727Y0245193D01*
X0174995Y0242127D02*
X0174995Y0238624D01*
X0174995Y0239791D02*
X0176747Y0239791D01*
X0177330Y0240375D01*
X0177330Y0241543D01*
X0176747Y0242127D01*
X0174995Y0242127D01*
X0176163Y0239791D02*
X0177330Y0238624D01*
X0178586Y0240375D02*
X0180338Y0242127D01*
X0180338Y0238624D01*
X0180922Y0240375D02*
X0178586Y0240375D01*
X0178272Y0216427D02*
X0177104Y0215259D01*
X0175848Y0215843D02*
X0175848Y0214675D01*
X0175264Y0214091D01*
X0173513Y0214091D01*
X0173513Y0212924D02*
X0173513Y0216427D01*
X0175264Y0216427D01*
X0175848Y0215843D01*
X0174681Y0214091D02*
X0175848Y0212924D01*
X0177104Y0212924D02*
X0179439Y0212924D01*
X0178272Y0212924D02*
X0178272Y0216427D01*
X0199292Y0210166D02*
X0199292Y0208999D01*
X0199876Y0208415D01*
X0199876Y0207159D02*
X0201044Y0207159D01*
X0201627Y0206575D01*
X0201627Y0204824D01*
X0201627Y0205991D02*
X0202795Y0207159D01*
X0202795Y0208415D02*
X0200460Y0210750D01*
X0199876Y0210750D01*
X0199292Y0210166D01*
X0199876Y0207159D02*
X0199292Y0206575D01*
X0199292Y0204824D01*
X0202795Y0204824D01*
X0202795Y0208415D02*
X0202795Y0210750D01*
X0202795Y0234824D02*
X0199292Y0234824D01*
X0199292Y0236575D01*
X0199876Y0237159D01*
X0201044Y0237159D01*
X0201627Y0236575D01*
X0201627Y0234824D01*
X0201627Y0235991D02*
X0202795Y0237159D01*
X0202211Y0238415D02*
X0202795Y0238999D01*
X0202795Y0240166D01*
X0202211Y0240750D01*
X0201627Y0240750D01*
X0201044Y0240166D01*
X0201044Y0239582D01*
X0201044Y0240166D02*
X0200460Y0240750D01*
X0199876Y0240750D01*
X0199292Y0240166D01*
X0199292Y0238999D01*
X0199876Y0238415D01*
X0244895Y0106894D02*
X0244895Y0103825D01*
X0244895Y0105359D02*
X0240291Y0105359D01*
X0241826Y0103825D01*
X0240291Y0102290D02*
X0244895Y0099221D01*
X0244895Y0102290D02*
X0240291Y0099221D01*
D14*
X0237512Y0099760D02*
X0237512Y0102209D01*
X0237512Y0104886D01*
X0237512Y0106825D01*
X0237512Y0122560D01*
X0237512Y0124462D01*
X0237512Y0130469D01*
X0197512Y0130469D01*
X0197512Y0124462D01*
X0197512Y0122560D01*
X0197512Y0106825D01*
X0197512Y0104886D01*
X0237512Y0104886D01*
X0237512Y0102209D02*
X0197512Y0102209D01*
X0197512Y0101425D01*
X0197512Y0099760D01*
X0197512Y0098579D01*
X0237512Y0098579D01*
X0237512Y0099760D01*
X0197512Y0099760D01*
X0196303Y0100835D02*
X0195268Y0100835D01*
X0195268Y0103646D01*
X0196303Y0103646D01*
X0197005Y0103055D01*
X0197512Y0103055D01*
X0197512Y0104886D01*
X0197512Y0103055D02*
X0197512Y0102209D01*
X0197512Y0101425D02*
X0197005Y0101425D01*
X0196303Y0100835D01*
X0199973Y0114622D02*
X0199975Y0114807D01*
X0199982Y0114992D01*
X0199993Y0115177D01*
X0200009Y0115361D01*
X0200030Y0115545D01*
X0200055Y0115728D01*
X0200084Y0115911D01*
X0200118Y0116093D01*
X0200156Y0116274D01*
X0200199Y0116454D01*
X0200246Y0116633D01*
X0200298Y0116810D01*
X0200354Y0116987D01*
X0200414Y0117162D01*
X0200478Y0117335D01*
X0200547Y0117507D01*
X0200620Y0117677D01*
X0200697Y0117845D01*
X0200778Y0118012D01*
X0200863Y0118176D01*
X0200952Y0118338D01*
X0201046Y0118498D01*
X0201143Y0118655D01*
X0201244Y0118810D01*
X0201348Y0118963D01*
X0201457Y0119113D01*
X0201569Y0119260D01*
X0201684Y0119405D01*
X0201803Y0119546D01*
X0201926Y0119685D01*
X0202052Y0119820D01*
X0202181Y0119953D01*
X0202314Y0120082D01*
X0202449Y0120208D01*
X0202588Y0120331D01*
X0202729Y0120450D01*
X0202874Y0120565D01*
X0203021Y0120677D01*
X0203171Y0120786D01*
X0203324Y0120890D01*
X0203479Y0120991D01*
X0203636Y0121088D01*
X0203796Y0121182D01*
X0203958Y0121271D01*
X0204122Y0121356D01*
X0204289Y0121437D01*
X0204457Y0121514D01*
X0204627Y0121587D01*
X0204799Y0121656D01*
X0204972Y0121720D01*
X0205147Y0121780D01*
X0205324Y0121836D01*
X0205501Y0121888D01*
X0205680Y0121935D01*
X0205860Y0121978D01*
X0206041Y0122016D01*
X0206223Y0122050D01*
X0206406Y0122079D01*
X0206589Y0122104D01*
X0206773Y0122125D01*
X0206957Y0122141D01*
X0207142Y0122152D01*
X0207327Y0122159D01*
X0207512Y0122161D01*
X0207697Y0122159D01*
X0207882Y0122152D01*
X0208067Y0122141D01*
X0208251Y0122125D01*
X0208435Y0122104D01*
X0208618Y0122079D01*
X0208801Y0122050D01*
X0208983Y0122016D01*
X0209164Y0121978D01*
X0209344Y0121935D01*
X0209523Y0121888D01*
X0209700Y0121836D01*
X0209877Y0121780D01*
X0210052Y0121720D01*
X0210225Y0121656D01*
X0210397Y0121587D01*
X0210567Y0121514D01*
X0210735Y0121437D01*
X0210902Y0121356D01*
X0211066Y0121271D01*
X0211228Y0121182D01*
X0211388Y0121088D01*
X0211545Y0120991D01*
X0211700Y0120890D01*
X0211853Y0120786D01*
X0212003Y0120677D01*
X0212150Y0120565D01*
X0212295Y0120450D01*
X0212436Y0120331D01*
X0212575Y0120208D01*
X0212710Y0120082D01*
X0212843Y0119953D01*
X0212972Y0119820D01*
X0213098Y0119685D01*
X0213221Y0119546D01*
X0213340Y0119405D01*
X0213455Y0119260D01*
X0213567Y0119113D01*
X0213676Y0118963D01*
X0213780Y0118810D01*
X0213881Y0118655D01*
X0213978Y0118498D01*
X0214072Y0118338D01*
X0214161Y0118176D01*
X0214246Y0118012D01*
X0214327Y0117845D01*
X0214404Y0117677D01*
X0214477Y0117507D01*
X0214546Y0117335D01*
X0214610Y0117162D01*
X0214670Y0116987D01*
X0214726Y0116810D01*
X0214778Y0116633D01*
X0214825Y0116454D01*
X0214868Y0116274D01*
X0214906Y0116093D01*
X0214940Y0115911D01*
X0214969Y0115728D01*
X0214994Y0115545D01*
X0215015Y0115361D01*
X0215031Y0115177D01*
X0215042Y0114992D01*
X0215049Y0114807D01*
X0215051Y0114622D01*
X0215049Y0114437D01*
X0215042Y0114252D01*
X0215031Y0114067D01*
X0215015Y0113883D01*
X0214994Y0113699D01*
X0214969Y0113516D01*
X0214940Y0113333D01*
X0214906Y0113151D01*
X0214868Y0112970D01*
X0214825Y0112790D01*
X0214778Y0112611D01*
X0214726Y0112434D01*
X0214670Y0112257D01*
X0214610Y0112082D01*
X0214546Y0111909D01*
X0214477Y0111737D01*
X0214404Y0111567D01*
X0214327Y0111399D01*
X0214246Y0111232D01*
X0214161Y0111068D01*
X0214072Y0110906D01*
X0213978Y0110746D01*
X0213881Y0110589D01*
X0213780Y0110434D01*
X0213676Y0110281D01*
X0213567Y0110131D01*
X0213455Y0109984D01*
X0213340Y0109839D01*
X0213221Y0109698D01*
X0213098Y0109559D01*
X0212972Y0109424D01*
X0212843Y0109291D01*
X0212710Y0109162D01*
X0212575Y0109036D01*
X0212436Y0108913D01*
X0212295Y0108794D01*
X0212150Y0108679D01*
X0212003Y0108567D01*
X0211853Y0108458D01*
X0211700Y0108354D01*
X0211545Y0108253D01*
X0211388Y0108156D01*
X0211228Y0108062D01*
X0211066Y0107973D01*
X0210902Y0107888D01*
X0210735Y0107807D01*
X0210567Y0107730D01*
X0210397Y0107657D01*
X0210225Y0107588D01*
X0210052Y0107524D01*
X0209877Y0107464D01*
X0209700Y0107408D01*
X0209523Y0107356D01*
X0209344Y0107309D01*
X0209164Y0107266D01*
X0208983Y0107228D01*
X0208801Y0107194D01*
X0208618Y0107165D01*
X0208435Y0107140D01*
X0208251Y0107119D01*
X0208067Y0107103D01*
X0207882Y0107092D01*
X0207697Y0107085D01*
X0207512Y0107083D01*
X0207327Y0107085D01*
X0207142Y0107092D01*
X0206957Y0107103D01*
X0206773Y0107119D01*
X0206589Y0107140D01*
X0206406Y0107165D01*
X0206223Y0107194D01*
X0206041Y0107228D01*
X0205860Y0107266D01*
X0205680Y0107309D01*
X0205501Y0107356D01*
X0205324Y0107408D01*
X0205147Y0107464D01*
X0204972Y0107524D01*
X0204799Y0107588D01*
X0204627Y0107657D01*
X0204457Y0107730D01*
X0204289Y0107807D01*
X0204122Y0107888D01*
X0203958Y0107973D01*
X0203796Y0108062D01*
X0203636Y0108156D01*
X0203479Y0108253D01*
X0203324Y0108354D01*
X0203171Y0108458D01*
X0203021Y0108567D01*
X0202874Y0108679D01*
X0202729Y0108794D01*
X0202588Y0108913D01*
X0202449Y0109036D01*
X0202314Y0109162D01*
X0202181Y0109291D01*
X0202052Y0109424D01*
X0201926Y0109559D01*
X0201803Y0109698D01*
X0201684Y0109839D01*
X0201569Y0109984D01*
X0201457Y0110131D01*
X0201348Y0110281D01*
X0201244Y0110434D01*
X0201143Y0110589D01*
X0201046Y0110746D01*
X0200952Y0110906D01*
X0200863Y0111068D01*
X0200778Y0111232D01*
X0200697Y0111399D01*
X0200620Y0111567D01*
X0200547Y0111737D01*
X0200478Y0111909D01*
X0200414Y0112082D01*
X0200354Y0112257D01*
X0200298Y0112434D01*
X0200246Y0112611D01*
X0200199Y0112790D01*
X0200156Y0112970D01*
X0200118Y0113151D01*
X0200084Y0113333D01*
X0200055Y0113516D01*
X0200030Y0113699D01*
X0200009Y0113883D01*
X0199993Y0114067D01*
X0199982Y0114252D01*
X0199975Y0114437D01*
X0199973Y0114622D01*
X0197512Y0124462D02*
X0237512Y0124462D01*
X0219973Y0114622D02*
X0219975Y0114807D01*
X0219982Y0114992D01*
X0219993Y0115177D01*
X0220009Y0115361D01*
X0220030Y0115545D01*
X0220055Y0115728D01*
X0220084Y0115911D01*
X0220118Y0116093D01*
X0220156Y0116274D01*
X0220199Y0116454D01*
X0220246Y0116633D01*
X0220298Y0116810D01*
X0220354Y0116987D01*
X0220414Y0117162D01*
X0220478Y0117335D01*
X0220547Y0117507D01*
X0220620Y0117677D01*
X0220697Y0117845D01*
X0220778Y0118012D01*
X0220863Y0118176D01*
X0220952Y0118338D01*
X0221046Y0118498D01*
X0221143Y0118655D01*
X0221244Y0118810D01*
X0221348Y0118963D01*
X0221457Y0119113D01*
X0221569Y0119260D01*
X0221684Y0119405D01*
X0221803Y0119546D01*
X0221926Y0119685D01*
X0222052Y0119820D01*
X0222181Y0119953D01*
X0222314Y0120082D01*
X0222449Y0120208D01*
X0222588Y0120331D01*
X0222729Y0120450D01*
X0222874Y0120565D01*
X0223021Y0120677D01*
X0223171Y0120786D01*
X0223324Y0120890D01*
X0223479Y0120991D01*
X0223636Y0121088D01*
X0223796Y0121182D01*
X0223958Y0121271D01*
X0224122Y0121356D01*
X0224289Y0121437D01*
X0224457Y0121514D01*
X0224627Y0121587D01*
X0224799Y0121656D01*
X0224972Y0121720D01*
X0225147Y0121780D01*
X0225324Y0121836D01*
X0225501Y0121888D01*
X0225680Y0121935D01*
X0225860Y0121978D01*
X0226041Y0122016D01*
X0226223Y0122050D01*
X0226406Y0122079D01*
X0226589Y0122104D01*
X0226773Y0122125D01*
X0226957Y0122141D01*
X0227142Y0122152D01*
X0227327Y0122159D01*
X0227512Y0122161D01*
X0227697Y0122159D01*
X0227882Y0122152D01*
X0228067Y0122141D01*
X0228251Y0122125D01*
X0228435Y0122104D01*
X0228618Y0122079D01*
X0228801Y0122050D01*
X0228983Y0122016D01*
X0229164Y0121978D01*
X0229344Y0121935D01*
X0229523Y0121888D01*
X0229700Y0121836D01*
X0229877Y0121780D01*
X0230052Y0121720D01*
X0230225Y0121656D01*
X0230397Y0121587D01*
X0230567Y0121514D01*
X0230735Y0121437D01*
X0230902Y0121356D01*
X0231066Y0121271D01*
X0231228Y0121182D01*
X0231388Y0121088D01*
X0231545Y0120991D01*
X0231700Y0120890D01*
X0231853Y0120786D01*
X0232003Y0120677D01*
X0232150Y0120565D01*
X0232295Y0120450D01*
X0232436Y0120331D01*
X0232575Y0120208D01*
X0232710Y0120082D01*
X0232843Y0119953D01*
X0232972Y0119820D01*
X0233098Y0119685D01*
X0233221Y0119546D01*
X0233340Y0119405D01*
X0233455Y0119260D01*
X0233567Y0119113D01*
X0233676Y0118963D01*
X0233780Y0118810D01*
X0233881Y0118655D01*
X0233978Y0118498D01*
X0234072Y0118338D01*
X0234161Y0118176D01*
X0234246Y0118012D01*
X0234327Y0117845D01*
X0234404Y0117677D01*
X0234477Y0117507D01*
X0234546Y0117335D01*
X0234610Y0117162D01*
X0234670Y0116987D01*
X0234726Y0116810D01*
X0234778Y0116633D01*
X0234825Y0116454D01*
X0234868Y0116274D01*
X0234906Y0116093D01*
X0234940Y0115911D01*
X0234969Y0115728D01*
X0234994Y0115545D01*
X0235015Y0115361D01*
X0235031Y0115177D01*
X0235042Y0114992D01*
X0235049Y0114807D01*
X0235051Y0114622D01*
X0235049Y0114437D01*
X0235042Y0114252D01*
X0235031Y0114067D01*
X0235015Y0113883D01*
X0234994Y0113699D01*
X0234969Y0113516D01*
X0234940Y0113333D01*
X0234906Y0113151D01*
X0234868Y0112970D01*
X0234825Y0112790D01*
X0234778Y0112611D01*
X0234726Y0112434D01*
X0234670Y0112257D01*
X0234610Y0112082D01*
X0234546Y0111909D01*
X0234477Y0111737D01*
X0234404Y0111567D01*
X0234327Y0111399D01*
X0234246Y0111232D01*
X0234161Y0111068D01*
X0234072Y0110906D01*
X0233978Y0110746D01*
X0233881Y0110589D01*
X0233780Y0110434D01*
X0233676Y0110281D01*
X0233567Y0110131D01*
X0233455Y0109984D01*
X0233340Y0109839D01*
X0233221Y0109698D01*
X0233098Y0109559D01*
X0232972Y0109424D01*
X0232843Y0109291D01*
X0232710Y0109162D01*
X0232575Y0109036D01*
X0232436Y0108913D01*
X0232295Y0108794D01*
X0232150Y0108679D01*
X0232003Y0108567D01*
X0231853Y0108458D01*
X0231700Y0108354D01*
X0231545Y0108253D01*
X0231388Y0108156D01*
X0231228Y0108062D01*
X0231066Y0107973D01*
X0230902Y0107888D01*
X0230735Y0107807D01*
X0230567Y0107730D01*
X0230397Y0107657D01*
X0230225Y0107588D01*
X0230052Y0107524D01*
X0229877Y0107464D01*
X0229700Y0107408D01*
X0229523Y0107356D01*
X0229344Y0107309D01*
X0229164Y0107266D01*
X0228983Y0107228D01*
X0228801Y0107194D01*
X0228618Y0107165D01*
X0228435Y0107140D01*
X0228251Y0107119D01*
X0228067Y0107103D01*
X0227882Y0107092D01*
X0227697Y0107085D01*
X0227512Y0107083D01*
X0227327Y0107085D01*
X0227142Y0107092D01*
X0226957Y0107103D01*
X0226773Y0107119D01*
X0226589Y0107140D01*
X0226406Y0107165D01*
X0226223Y0107194D01*
X0226041Y0107228D01*
X0225860Y0107266D01*
X0225680Y0107309D01*
X0225501Y0107356D01*
X0225324Y0107408D01*
X0225147Y0107464D01*
X0224972Y0107524D01*
X0224799Y0107588D01*
X0224627Y0107657D01*
X0224457Y0107730D01*
X0224289Y0107807D01*
X0224122Y0107888D01*
X0223958Y0107973D01*
X0223796Y0108062D01*
X0223636Y0108156D01*
X0223479Y0108253D01*
X0223324Y0108354D01*
X0223171Y0108458D01*
X0223021Y0108567D01*
X0222874Y0108679D01*
X0222729Y0108794D01*
X0222588Y0108913D01*
X0222449Y0109036D01*
X0222314Y0109162D01*
X0222181Y0109291D01*
X0222052Y0109424D01*
X0221926Y0109559D01*
X0221803Y0109698D01*
X0221684Y0109839D01*
X0221569Y0109984D01*
X0221457Y0110131D01*
X0221348Y0110281D01*
X0221244Y0110434D01*
X0221143Y0110589D01*
X0221046Y0110746D01*
X0220952Y0110906D01*
X0220863Y0111068D01*
X0220778Y0111232D01*
X0220697Y0111399D01*
X0220620Y0111567D01*
X0220547Y0111737D01*
X0220478Y0111909D01*
X0220414Y0112082D01*
X0220354Y0112257D01*
X0220298Y0112434D01*
X0220246Y0112611D01*
X0220199Y0112790D01*
X0220156Y0112970D01*
X0220118Y0113151D01*
X0220084Y0113333D01*
X0220055Y0113516D01*
X0220030Y0113699D01*
X0220009Y0113883D01*
X0219993Y0114067D01*
X0219982Y0114252D01*
X0219975Y0114437D01*
X0219973Y0114622D01*
X0132595Y0140024D02*
X0130095Y0137524D01*
X0125095Y0137524D01*
X0122595Y0140024D01*
X0122595Y0145024D01*
X0125095Y0147524D01*
X0122595Y0150024D01*
X0122595Y0155024D01*
X0125095Y0157524D01*
X0122595Y0160024D01*
X0122595Y0165024D01*
X0125095Y0167524D01*
X0130095Y0167524D01*
X0132595Y0165024D01*
X0132595Y0160024D01*
X0130095Y0157524D01*
X0132595Y0155024D01*
X0132595Y0150024D01*
X0130095Y0147524D01*
X0132595Y0145024D01*
X0132595Y0140024D01*
X0130095Y0172524D02*
X0125095Y0172524D01*
X0122595Y0175024D01*
X0122595Y0180024D01*
X0125095Y0182524D01*
X0122595Y0185024D01*
X0122595Y0190024D01*
X0125095Y0192524D01*
X0122595Y0195024D01*
X0122595Y0200024D01*
X0125095Y0202524D01*
X0130095Y0202524D01*
X0132595Y0200024D01*
X0132595Y0195024D01*
X0130095Y0192524D01*
X0132595Y0190024D01*
X0132595Y0185024D01*
X0130095Y0182524D01*
X0132595Y0180024D01*
X0132595Y0175024D01*
X0130095Y0172524D01*
X0102595Y0175024D02*
X0102595Y0180024D01*
X0100095Y0182524D01*
X0102595Y0185024D01*
X0102595Y0190024D01*
X0100095Y0192524D01*
X0102595Y0195024D01*
X0102595Y0200024D01*
X0100095Y0202524D01*
X0095095Y0202524D01*
X0092595Y0200024D01*
X0092595Y0195024D01*
X0095095Y0192524D01*
X0092595Y0190024D01*
X0092595Y0185024D01*
X0095095Y0182524D01*
X0092595Y0180024D01*
X0092595Y0175024D01*
X0095095Y0172524D01*
X0100095Y0172524D01*
X0102595Y0175024D01*
X0100095Y0167524D02*
X0095095Y0167524D01*
X0092595Y0165024D01*
X0092595Y0160024D01*
X0095095Y0157524D01*
X0092595Y0155024D01*
X0092595Y0150024D01*
X0095095Y0147524D01*
X0092595Y0145024D01*
X0092595Y0140024D01*
X0095095Y0137524D01*
X0100095Y0137524D01*
X0102595Y0140024D01*
X0102595Y0145024D01*
X0100095Y0147524D01*
X0102595Y0150024D01*
X0102595Y0155024D01*
X0100095Y0157524D01*
X0102595Y0160024D01*
X0102595Y0165024D01*
X0100095Y0167524D01*
X0085095Y0222524D02*
X0070095Y0222524D01*
D15*
X0161095Y0117524D03*
D16*
X0154845Y0117524D03*
X0180345Y0117524D03*
D17*
X0085095Y0222524D02*
X0085338Y0222337D01*
X0085576Y0222145D01*
X0085809Y0221946D01*
X0086037Y0221742D01*
X0086260Y0221533D01*
X0086478Y0221318D01*
X0086691Y0221098D01*
X0086898Y0220873D01*
X0087100Y0220642D01*
X0087296Y0220407D01*
X0087486Y0220167D01*
X0087670Y0219923D01*
X0087848Y0219674D01*
X0088020Y0219420D01*
X0088186Y0219163D01*
X0088346Y0218902D01*
X0088499Y0218637D01*
X0088645Y0218368D01*
X0088785Y0218095D01*
X0088918Y0217820D01*
X0089044Y0217541D01*
X0089164Y0217259D01*
X0089276Y0216974D01*
X0089381Y0216687D01*
X0089480Y0216397D01*
X0089571Y0216105D01*
X0089655Y0215810D01*
X0089732Y0215514D01*
X0089802Y0215216D01*
X0089864Y0214916D01*
X0089919Y0214615D01*
X0089966Y0214313D01*
X0090006Y0214009D01*
X0090039Y0213705D01*
X0090064Y0213400D01*
X0090082Y0213094D01*
X0090092Y0212788D01*
X0090095Y0212482D01*
X0090090Y0212176D01*
X0090078Y0211870D01*
X0090058Y0211564D01*
X0090031Y0211260D01*
X0089996Y0210955D01*
X0089954Y0210652D01*
X0089905Y0210350D01*
X0089848Y0210049D01*
X0089783Y0209750D01*
X0089712Y0209452D01*
X0089633Y0209157D01*
X0089547Y0208863D01*
X0089454Y0208571D01*
X0089353Y0208282D01*
X0089246Y0207995D01*
X0089131Y0207711D01*
X0089010Y0207430D01*
X0088882Y0207152D01*
X0088747Y0206877D01*
X0088605Y0206606D01*
X0088457Y0206338D01*
X0088302Y0206074D01*
X0088141Y0205814D01*
X0087974Y0205558D01*
X0087800Y0205305D01*
X0087620Y0205058D01*
X0087434Y0204814D01*
X0087243Y0204576D01*
X0087045Y0204342D01*
X0086842Y0204113D01*
X0086633Y0203889D01*
X0086419Y0203670D01*
X0086199Y0203457D01*
X0085975Y0203249D01*
X0085745Y0203046D01*
X0085511Y0202850D01*
X0085271Y0202659D01*
X0085028Y0202474D01*
X0084779Y0202295D01*
X0084527Y0202122D01*
X0084270Y0201955D01*
X0084009Y0201795D01*
X0083744Y0201641D01*
X0083476Y0201494D01*
X0083204Y0201353D01*
X0082929Y0201219D01*
X0082650Y0201092D01*
X0082369Y0200971D01*
X0082084Y0200858D01*
X0081797Y0200752D01*
X0081508Y0200652D01*
X0081216Y0200560D01*
X0080922Y0200475D01*
X0080626Y0200397D01*
X0080328Y0200326D01*
X0080028Y0200263D01*
X0079727Y0200207D01*
X0079425Y0200159D01*
X0079122Y0200118D01*
X0078818Y0200084D01*
X0078513Y0200058D01*
X0078207Y0200039D01*
X0077901Y0200028D01*
X0077595Y0200024D01*
X0077289Y0200028D01*
X0076983Y0200039D01*
X0076677Y0200058D01*
X0076372Y0200084D01*
X0076068Y0200118D01*
X0075765Y0200159D01*
X0075463Y0200207D01*
X0075162Y0200263D01*
X0074862Y0200326D01*
X0074564Y0200397D01*
X0074268Y0200475D01*
X0073974Y0200560D01*
X0073682Y0200652D01*
X0073393Y0200752D01*
X0073106Y0200858D01*
X0072821Y0200971D01*
X0072540Y0201092D01*
X0072261Y0201219D01*
X0071986Y0201353D01*
X0071714Y0201494D01*
X0071446Y0201641D01*
X0071181Y0201795D01*
X0070920Y0201955D01*
X0070663Y0202122D01*
X0070411Y0202295D01*
X0070162Y0202474D01*
X0069919Y0202659D01*
X0069679Y0202850D01*
X0069445Y0203046D01*
X0069215Y0203249D01*
X0068991Y0203457D01*
X0068771Y0203670D01*
X0068557Y0203889D01*
X0068348Y0204113D01*
X0068145Y0204342D01*
X0067947Y0204576D01*
X0067756Y0204814D01*
X0067570Y0205058D01*
X0067390Y0205305D01*
X0067216Y0205558D01*
X0067049Y0205814D01*
X0066888Y0206074D01*
X0066733Y0206338D01*
X0066585Y0206606D01*
X0066443Y0206877D01*
X0066308Y0207152D01*
X0066180Y0207430D01*
X0066059Y0207711D01*
X0065944Y0207995D01*
X0065837Y0208282D01*
X0065736Y0208571D01*
X0065643Y0208863D01*
X0065557Y0209157D01*
X0065478Y0209452D01*
X0065407Y0209750D01*
X0065342Y0210049D01*
X0065285Y0210350D01*
X0065236Y0210652D01*
X0065194Y0210955D01*
X0065159Y0211260D01*
X0065132Y0211564D01*
X0065112Y0211870D01*
X0065100Y0212176D01*
X0065095Y0212482D01*
X0065098Y0212788D01*
X0065108Y0213094D01*
X0065126Y0213400D01*
X0065151Y0213705D01*
X0065184Y0214009D01*
X0065224Y0214313D01*
X0065271Y0214615D01*
X0065326Y0214916D01*
X0065388Y0215216D01*
X0065458Y0215514D01*
X0065535Y0215810D01*
X0065619Y0216105D01*
X0065710Y0216397D01*
X0065809Y0216687D01*
X0065914Y0216974D01*
X0066026Y0217259D01*
X0066146Y0217541D01*
X0066272Y0217820D01*
X0066405Y0218095D01*
X0066545Y0218368D01*
X0066691Y0218637D01*
X0066844Y0218902D01*
X0067004Y0219163D01*
X0067170Y0219420D01*
X0067342Y0219674D01*
X0067520Y0219923D01*
X0067704Y0220167D01*
X0067894Y0220407D01*
X0068090Y0220642D01*
X0068292Y0220873D01*
X0068499Y0221098D01*
X0068712Y0221318D01*
X0068930Y0221533D01*
X0069153Y0221742D01*
X0069381Y0221946D01*
X0069614Y0222145D01*
X0069852Y0222337D01*
X0070095Y0222524D01*
D18*
X0131395Y0220524D02*
X0131395Y0214524D01*
X0133895Y0214524D02*
X0133895Y0220524D01*
X0204595Y0178724D02*
X0210595Y0178724D01*
X0210595Y0176224D02*
X0204595Y0176224D01*
M02*
